<?xml version="1.0" standalone="no"?>
<!DOCTYPE svg PUBLIC "-//W3C//DTD SVG 1.1//EN" "http://www.w3.org/Graphics/SVG/1.1/DTD/svg11.dtd" >
<svg xmlns="http://www.w3.org/2000/svg">
<metadata>
Created by FontForge 20120731 at Tue Mar  7 14:22:54 2017
 By admin
</metadata>
<defs>
<font id="iconfont" horiz-adv-x="1024" >
  <font-face 
    font-family="iconfont"
    font-weight="500"
    font-stretch="normal"
    units-per-em="1024"
    panose-1="2 0 6 3 0 0 0 0 0 0"
    ascent="896"
    descent="-128"
    x-height="792"
    bbox="-6 -148 1145 896"
    underline-thickness="0"
    underline-position="0"
    unicode-range="U+0078-E83D"
  />
<missing-glyph 
 />
    <glyph glyph-name=".notdef" 
 />
    <glyph glyph-name=".notdef" 
 />
    <glyph glyph-name=".null" horiz-adv-x="0" 
 />
    <glyph glyph-name="nonmarkingreturn" horiz-adv-x="341" 
 />
    <glyph glyph-name="x" unicode="x" horiz-adv-x="1001" 
d="M281 543q-27 -1 -53 -1h-83q-18 0 -36.5 -6t-32.5 -18.5t-23 -32t-9 -45.5v-76h912v41q0 16 -0.5 30t-0.5 18q0 13 -5 29t-17 29.5t-31.5 22.5t-49.5 9h-133v-97h-438v97zM955 310v-52q0 -23 0.5 -52t0.5 -58t-10.5 -47.5t-26 -30t-33 -16t-31.5 -4.5q-14 -1 -29.5 -0.5
t-29.5 0.5h-32l-45 128h-439l-44 -128h-29h-34q-20 0 -45 1q-25 0 -41 9.5t-25.5 23t-13.5 29.5t-4 30v167h911zM163 247q-12 0 -21 -8.5t-9 -21.5t9 -21.5t21 -8.5q13 0 22 8.5t9 21.5t-9 21.5t-22 8.5zM316 123q-8 -26 -14 -48q-5 -19 -10.5 -37t-7.5 -25t-3 -15t1 -14.5
t9.5 -10.5t21.5 -4h37h67h81h80h64h36q23 0 34 12t2 38q-5 13 -9.5 30.5t-9.5 34.5q-5 19 -11 39h-368zM336 498v228q0 11 2.5 23t10 21.5t20.5 15.5t34 6h188q31 0 51.5 -14.5t20.5 -52.5v-227h-327z" />
    <glyph glyph-name="yuyan" unicode="&#xe61b;" 
d="M542 896q99 0 186.5 -38t152 -102.5t102.5 -152t38 -186.5q0 -100 -38 -187.5t-102.5 -152.5t-152 -103t-186.5 -38t-186.5 38t-152.5 103t-103 152.5t-38 187.5q0 99 38 186.5t103 152t152.5 102.5t186.5 38zM672 284q4 4 -2.5 10t-14.5 14t-14 16t-4 15q5 16 3.5 24
t-10 10.5t-23.5 2t-37 -0.5q-11 0 -18 -1t-13.5 -1.5t-13.5 -1t-16 0.5q-14 1 -22 5t-14.5 8t-16.5 7t-30 4q-27 1 -39 2.5t-17 3t-8 2t-12 0.5q-10 -1 -28.5 -9t-38 -18.5t-34 -22t-14.5 -18.5q0 -20 2.5 -32.5t7 -19t10 -10.5t10.5 -9.5t13.5 -7.5t19 -2.5t19 -2.5
t13.5 -7q10 -12 21.5 -10t20 6.5t14 3.5t6.5 -19q0 -9 3.5 -13t8.5 -6l12 -6q7 -4 15 -11q8 -8 5.5 -15.5t-7.5 -14t-9.5 -14t0.5 -14.5q7 -12 15.5 -17t16 -8.5t13.5 -8t8 -14.5q0 -4 7 -12.5t14 -17.5t11 -15.5t-2 -5.5q12 -2 26 -2t18 6l2 2v1l3 1q2 1 5.5 2.5t9.5 6.5
q12 8 23.5 21.5t19.5 29t14 32t8 30.5t6.5 20t8 10.5t6 12t-0.5 26.5q-3 23 5.5 34t14.5 18zM774 123q14 18 14.5 29t-24.5 17q-25 7 -36 7.5t-20 -11t-13 -23t2 -32.5q3 -9 5 -14.5t5 -7t9.5 -1t17.5 3.5q12 3 23.5 14t16.5 18zM801 422q7 7 24 10.5t34.5 9t30.5 16t14 29
t0 33.5t-6 30.5t-13.5 32.5t-21.5 38q-15 23 -26.5 38t-23 26t-23.5 19.5t-28 17.5t-32 20t-34 14.5t-39.5 -4.5t-49.5 -36l-17 -18q-12 -10 -24 -19.5t-23.5 -16t-20.5 -6.5q-8 0 -25.5 -2t-35 -10.5t-30.5 -23t-11 -39.5q1 -27 9.5 -35.5t22.5 -9.5t33 -2t40 -13
q26 -6 48 -12q20 -5 40 -13t33 -16q15 -9 12 -24t-10.5 -30t-12.5 -29.5t6 -22.5q15 -11 22 -14.5t15.5 -2t22.5 5t44 3.5q-8 0 -3 6t16 15t23 19t20 16z" />
    <glyph glyph-name="page-xiangyou" unicode="&#xe64d;" horiz-adv-x="1000" 
d="M798 410l-383 412h-177l383 -412l-383 -383h177zM798 410z" />
    <glyph glyph-name="fanhui" unicode="&#xe60b;" horiz-adv-x="1000" 
d="M920 174q-16 0 -19 16q-2 7 -6 19t-21.5 43.5t-41.5 57.5q-109 114 -319 119v-162q0 -12 -11 -17.5t-21 1.5l-383 277q-9 6 -9 16.5t9 16.5l383 279q10 7 21 1.5t11 -17.5v-173q58 -2 117 -18q120 -31 196 -109q118 -119 114 -330q0 -8 -5 -13.5t-13 -6.5h-2zM493 470
q133 0 233 -42q81 -33 136 -93q17 -18 31 -38q-20 122 -95 199q-38 38 -86.5 64t-94.5 35.5t-72 13t-47 3.5q-3 0 -5 -1v0q-8 0 -14 6t-6 14v153l-330 -239l330 -239v144q0 8 5.5 14t14.5 6z" />
    <glyph glyph-name="sousuo" unicode="&#xe616;" 
d="M961 -20l-272 272q86 100 86 231q0 97 -47.5 178.5t-129.5 129.5t-178.5 48t-178.5 -48t-129.5 -129.5t-47.5 -178t47.5 -178.5t129.5 -129.5t178 -47.5q115 0 208 67l275 -274zM106 483.5q0 129.5 92 221.5t221.5 92t221.5 -92t92 -221.5t-92 -221.5t-221.5 -92
t-221.5 92t-92 221.5z" />
    <glyph glyph-name="baocun" unicode="&#xe61c;" 
d="M832 896h-800q-13 0 -22.5 -9.5t-9.5 -22.5v-960q0 -13 9.5 -22.5t22.5 -9.5h160h128h384h128h160q13 0 22.5 9.5t9.5 22.5v800zM512 768h128v-192h-128v192zM320 0v192h384v-192h-384zM896 0h-64v320h-640v-320h-64v768h128v-320h512v320l128 -128v-640z" />
    <glyph glyph-name="shuaxin" unicode="&#xe617;" 
d="M952 123l-93 138q-6 8 -21 10t-26 -4l-189 -97q-14 -7 -10 -18q4 -10 22 -13l50 -7q-38 -45 -85 -69.5t-95 -24.5q-47 0 -94 25t-85 67.5t-61.5 106.5t-23.5 135q0 17 -20.5 29.5t-49.5 12.5t-49.5 -12.5t-20.5 -29.5q0 -116 53.5 -212t146.5 -151t204 -55q96 0 178.5 41
t139.5 116l96 -15h7v0q13 0 21.5 5t8.5 13q0 5 -4 9v0zM186 504q-15 2 -21 11l-94 139q-7 11 5 19t30 6l95 -15q57 75 140 116.5t178 41.5q112 0 204.5 -55.5t146 -151.5t53.5 -212q0 -17 -20.5 -29.5t-49.5 -12.5t-49 12.5t-20 29.5q0 71 -24 135t-62 106.5t-85 67.5
t-94 25q-48 0 -95 -24.5t-84 -69.5l49 -7q18 -3 22 -13q5 -11 -9 -18l-190 -97q-8 -5 -19 -5q-4 0 -7 1z" />
    <glyph glyph-name="cuowu" unicode="&#xe61d;" 
d="M879 601l-231 -232l231 -231q7 -7 7 -17t-7 -17l-105 -105q-7 -7 -17 -7t-17 7l-231 230l-228 -230q-8 -7 -18 -7t-17 7l-105 105q-7 7 -7 17t7 17l229 231l-229 228q-7 8 -7 18t7 17l105 105q7 7 17 7t18 -7l228 -228l231 232q7 7 17 7t17 -7l105 -105q7 -7 7 -17.5
t-7 -17.5v0z" />
    <glyph glyph-name="gengduo" unicode="&#xe62a;" 
d="M224 288q-40 0 -68 28t-28 68t28 68t68 28t68 -28t28 -68t-28 -68t-68 -28zM512 288q-40 0 -68 28t-28 68t28 68t68 28t68 -28t28 -68t-28 -68t-68 -28zM800 288q-40 0 -68 28t-28 68t28 68t68 28t68 -28t28 -68t-28 -68t-68 -28z" />
    <glyph glyph-name="page-chexiao" unicode="&#xe659;" 
d="M153 558q-5 -5 -5 -11.5t5 -10.5l273 -271q3 -3 6 -1.5t3 4.5v164q27 0 46 -0.5t54.5 -5.5t61 -13.5t56.5 -26.5t50.5 -43t33 -64t13.5 -89q0 -93 -57 -164.5t-144 -89.5q139 19 233 128t94 256q0 59 -13.5 109t-35 85.5t-53 64t-62 46.5t-69 31t-67 19t-61.5 10t-48 4.5
t-32 0.5v137q0 4 -3 5t-6 -1z" />
    <glyph glyph-name="baobiaoguanli" unicode="&#xe606;" 
d="M895 15h-763v763q0 10 -4 17.5t-9 7.5h-19q-5 0 -9 -7.5t-4 -17.5v-777v-7v-11q0 -5 5 -9q4 -5 8 -5h12h7h776q11 0 18 4t7 10v18q0 6 -7 10t-18 4zM949 80l-139 68l46 14l-272 311l-220 -207q-7 -6 -16 -5t-14 9l-160 456q-5 7 -3 15.5t9 12.5q5 4 11 4q11 0 18 -9
l146 -437l222 209q7 7 17 5t15 -11l280 -328l30 37zM186 56q0 -9 6.5 -14.5t16 -5.5t16 6t6.5 14v449l-45 129v-578zM251 56q0 -8 6.5 -14t16 -6t16 6t6.5 14v264l-45 129v-393zM345 243q-18 2 -28 17l-1 2l-1 3v0v-209q0 -9 6.5 -14.5t16 -5.5t16 5.5t6.5 14.5v188
q-5 -2 -9 -2q-3 0 -6 1zM380 56q0 -8 6.5 -14t16 -6t16 5.5t6.5 14.5v241l-45 -42v-199zM444 56q0 -8 6.5 -14t16 -6t16 6t6.5 14v302l-45 -42v-260zM509 56q0 -9 6.5 -14.5t16 -5.5t16 6t6.5 14v363l-45 -42v-321zM573 437v-381q0 -9 6.5 -14.5t16 -5.5t16 5.5t6.5 14.5
v350l-35 40zM638 56q0 -9 6.5 -14.5t16 -5.5t16 6t6.5 14v276l-45 52v-328zM702 56q0 -8 6.5 -14t16 -6t16 6t6.5 14v202l-45 52v-254zM812 170v14l-45 52v-80l38 11zM767 149v-93q0 -9 6.5 -14.5t16 -5.5t16 5.5t6.5 14.5v71l-10 4zM831 56q0 -9 6.5 -14.5t16 -5.5t16 5.5
t6.5 14.5v39l-45 22v-61z" />
    <glyph glyph-name="mima" unicode="&#xe601;" 
d="M763 441v148q0 101 -72 173t-173 72h-2.5h-2.5h-2.5h-1.5q-102 0 -174 -72t-72 -173v-148h-86v-507h675v507h-89zM591 27h-153l37 164q-37 22 -37 66q0 31 22.5 53.5t54 22.5t54 -22.5t22.5 -53.5q0 -44 -38 -66zM640 441h-254v148q0 50 36 86t87 36h6h3q50 0 86 -36
t36 -86v-148z" />
    <glyph glyph-name="cn-jinggao" unicode="&#xe605;" 
d="M951 80l-393 628q-16 25 -47 25t-47 -25l-393 -628q-17 -27 0 -53q16 -25 47 -25h786q31 0 47 25q17 26 0 53v0zM561 102q0 -9 -5 -15.5t-13 -6.5h-62q-8 0 -13.5 6.5t-5.5 15.5v37q0 10 5.5 16.5t13.5 6.5h62q8 0 13 -6.5t5 -16.5v-37zM556 225q-5 -5 -13 -5l-62 1
q-8 0 -13 4t-5 11l-1 105v166q0 6 5.5 10.5t12.5 4.5h63q8 0 13 -4.5t5 -10.5v-165v-107q0 -6 -5 -10v0zM556 225z" />
    <glyph glyph-name="shangchuan" unicode="&#xe602;" 
d="M798 422q13 33 13 70q0 79 -56 134.5t-135 55.5q-64 0 -114 -37.5t-68 -96.5q-20 28 -51 43.5t-66 15.5q-60 0 -102 -42t-42 -102q0 -25 8 -48q-53 -15 -87 -59.5t-34 -101.5v0q0 -69 49 -118t118 -49h206v149h-149l243 261l242 -261h-149v-149h168q69 0 118 49t49 118v0
q0 68 -47 117t-114 51z" />
    <glyph glyph-name="quanxianguanli" unicode="&#xe607;" 
d="M510 255q-104 0 -192 -25t-139 -68.5t-51 -94.5q0 -26 28 -38.5t100 -20.5q74 -8 256 -8q190 0 257 8q72 9 99.5 21t27.5 38q0 51 -52 94.5t-141 68.5t-193 25zM322 512q10 -84 65 -138t125 -54t125 54t65 138h2h128v64h-128v102v26q0 27 -18.5 45.5t-45.5 18.5h-256
q-27 0 -45.5 -18.5t-18.5 -45.5v-26v-102h-128v-64h128h2z" />
    <glyph glyph-name="xinzeng" unicode="&#xe61e;" 
d="M739 414h-188v207q0 22 -34 24q-16 1 -24.5 -6t-8.5 -18v-207h-199q-1 0 -4.5 0.5t-9 -1t-11 -4t-9.5 -8.5t-4 -14q0 -15 2.5 -24t7.5 -12.5t9 -4t11 -0.5h207l-1 -217v-6t0.5 -6t0.5 -5.5t1 -6t2.5 -5t4 -5t5.5 -3t7.5 -2t10.5 -0.5q35 0 35 42l1 214h189q42 0 42 36
q0 16 -10.5 24.5t-21.5 7.5h-11zM518.5 854q-97.5 0 -186.5 -38t-153 -102.5t-102 -153t-38 -186.5t38 -186.5t102 -153t153 -102.5t186.5 -38t186.5 38t153.5 102t102.5 153t38 187t-38 186.5t-102.5 153t-153.5 102.5t-186.5 38zM519 -42q-113 0 -209 55.5t-151.5 151.5
t-55.5 209t55.5 209t151.5 151.5t209 55.5t208.5 -55.5t151.5 -151.5t56 -209t-56 -209t-151.5 -151.5t-208.5 -55.5z" />
    <glyph glyph-name="moren" unicode="&#xe62b;" horiz-adv-x="1025" 
d="M544 81q-13 7 -32 7t-32 -7l-225 -116q-13 -7 -20.5 -1.5t-5.5 19.5l43 247q3 15 -3 32.5t-17 28.5l-182 175q-10 10 -7 19t17 11l252 36q14 2 29.5 13t22.5 24l112 225q7 13 16.5 13t15.5 -13l112 -225q7 -13 22.5 -24t30.5 -13l251 -36q15 -2 17.5 -11t-7.5 -19
l-182 -175q-11 -11 -17 -28.5t-3 -32.5l43 -247q2 -14 -5.5 -19.5t-20.5 1.5z" />
    <glyph glyph-name="quxiao" unicode="&#xe61f;" 
d="M513.5 -123q-103.5 0 -197.5 40t-162 108t-108 162t-40 197t40 197t108 162t162 108.5t197.5 40.5t197.5 -40.5t161.5 -108.5t108 -162t40.5 -197t-40.5 -197t-108 -162t-161.5 -108t-197.5 -40zM746 532q7 7 7 17t-7 18l-52 51q-7 8 -17 8t-17 -8l-147 -146l-147 146
q-7 8 -17 8t-17 -8l-52 -51q-7 -8 -7 -18t7 -17l147 -147l-147 -146q-7 -8 -7 -18t7 -17l52 -52q7 -7 17 -7t17 7l147 147l147 -147q7 -7 17 -7t17 7l52 52q7 7 7 17t-7 18l-147 146z" />
    <glyph glyph-name="page-zujian" unicode="&#xe68c;" 
d="M737 651q-191 -9 -258 -12q-33 -2 -43.5 20.5t15.5 49.5q18 18 23.5 25t9 22.5t1.5 41.5q-4 41 -38 60t-78 19q-41 -1 -77.5 -21.5t-48.5 -56.5q-20 -58 18 -86q1 -1 7.5 -5t8.5 -6l7 -7t5.5 -8.5t0.5 -9t-5 -11.5t-13 -12q-5 -5 -31 -6t-59 0t-64.5 3t-54 4t-21.5 2
q-1 -20 -2.5 -48t-3 -99.5t2.5 -82.5q3 -23 24.5 -28.5t39.5 17.5q14 18 37.5 21.5t46.5 -6.5t41 -35t19 -59q2 -29 -8 -50.5t-26.5 -31.5t-34.5 -13.5t-33.5 1.5t-22.5 17q-17 29 -50 30.5t-36 -31.5q-4 -73 30 -305q16 -3 40.5 -8.5t78.5 -12t81 -1.5q23 3 29 31.5
t-13 45.5q-8 7 -12 22.5t-1 34t13.5 35t36 25.5t61.5 6q29 -3 47.5 -14.5t24.5 -26t6 -29.5t-5.5 -27t-13.5 -17q-13 -7 -16 -22.5t8 -31.5t35 -22q15 -4 38.5 -4.5t48 1.5t54.5 6t52.5 7.5t46 8t31 6l12.5 2.5v0q-3 19 -7.5 49t-10 91.5t-1.5 86.5q4 20 17 28t27.5 4.5
t26.5 -9.5t16 -11q20 -27 50 -34t56.5 4.5t45 43.5t18.5 76q0 81 -41.5 114.5t-85 24.5t-52.5 -34q-6 -16 -18.5 -24.5t-25.5 -7.5t-23 8.5t-13 17.5q-6 40 -4 96.5t8 106.5z" />
    <glyph glyph-name="quanxuan" unicode="&#xe628;" 
d="M476 690h505q17 0 29.5 12.5t12.5 29.5t-12.5 29.5t-29.5 12.5h-505q-17 0 -29.5 -12.5t-12.5 -29.5t12.5 -29.5t29.5 -12.5zM981 396h-505q-17 0 -29.5 -12.5t-12.5 -30t12.5 -30t29.5 -12.5h505q17 0 29.5 12.5t12.5 30t-12.5 30t-29.5 12.5zM981 17h-505
q-17 0 -29.5 -12.5t-12.5 -30t12.5 -29.5t29.5 -12h505q17 0 29.5 12t12.5 29.5t-12.5 30t-29.5 12.5zM296 870l-151 -151l-88 87q-9 10 -22 10t-22.5 -9.5t-9.5 -22.5t10 -22l104 -104q12 -12 28 -9q16 -3 28 9l168 167q9 10 9 23t-9 22t-22.5 9t-22.5 -9zM296 492
l-151 -152l-88 88q-9 9 -22 9t-22.5 -9t-9.5 -22.5t10 -22.5l104 -104q12 -12 28 -9q16 -3 28 9l168 168q9 9 9 22t-9 22.5t-22.5 9.5t-22.5 -9zM296 113l-151 -151l-88 87q-9 9 -22 9t-22.5 -9t-9.5 -22t10 -22l104 -105q12 -11 28 -8q16 -3 28 9l168 167q9 9 9 22.5
t-9 22.5t-22.5 9t-22.5 -9z" />
    <glyph glyph-name="charushuipingxian" unicode="&#xe753;" 
d="M305 260zM730 427zM596 554zM323 662v-275h52v224h451v-224h51v275h-554zM140 456l137 -138l-137 -137v275zM323 -68v317h52v-265h451v266l51 -1v-317h-554zM382 347h438v-58h-438v58z" />
    <glyph glyph-name="page-dian" unicode="&#xe651;" 
d="M784 399q0 -114 -80.5 -194.5t-194.5 -80.5t-194.5 80.5t-80.5 194.5t80.5 194.5t194.5 80.5t194.5 -80.5t80.5 -194.5z" />
    <glyph glyph-name="jinggao" unicode="&#xe603;" 
d="M621 830l-31 -604h-154l-31 604h216zM509 -62q-49 0 -78 31t-29 77q0 47 31 77.5t78 30.5q48 0 77.5 -30.5t29.5 -77.5t-30 -77.5t-79 -30.5v0v0z" />
    <glyph glyph-name="yonghuguanli" unicode="&#xe608;" 
d="M611 158q0 41 16 80q-10 7 -16 11v66q27 46 41 99q11 1 22 16t17 37t4 40t-11 24h1q7 52 -4 112.5t-42 88.5q-27 25 -75.5 40t-104 10t-91.5 -36q-34 -5 -62 -39t-26 -89q3 -77 5 -86q-10 -5 -12 -23.5t4 -41.5q6 -22 17 -37t21 -16q12 -43 32 -82q3 -41 3 -77
q-2 1 -5 -1q-2 0 -4 -2q-11 -7 -29.5 -23.5t-35.5 -27.5q-6 -4 -15 -9q-25 -7 -103 -21q-7 -2 -12 -4q-52 -28 -82 -77t-37 -106h675q-42 30 -66.5 75.5t-24.5 98.5zM276 201v0v0zM823.5 332q-72.5 0 -123 -51t-50.5 -123t50.5 -123t123 -51t123 51t50.5 123t-50.5 123
t-123 51zM866 116v-85h-85v85h-85v85h85v85h85v-85h85v-85h-85z" />
    <glyph glyph-name="page-textarea" unicode="&#xe63d;" 
d="M709 108l197 197v-197h-197zM1024 660v-552q0 -49 -34.5 -83.5t-83.5 -34.5h-788q-49 0 -83.5 34.5t-34.5 83.5v552q0 49 34.5 83.5t83.5 34.5h788q49 0 83.5 -34.5t34.5 -83.5zM946 68l-1 632h-867v-631z" />
    <glyph glyph-name="page-wenben" unicode="&#xe63e;" 
d="M761 -128h-498v42q33 12 66 21q33 8 73 15v870h-189l-79 -209h-37q-5 29 -8 66q-3 34 -5 76q-2 36 -4 76q-1 38 -1 67h866q0 -28 -1.5 -66t-3.5 -75q-1 -7 -2.5 -34.5t-2.5 -41.5q-2 -38 -6 -68h-40l-78 209h-187v-871q42 -8 72 -14q34 -8 65 -21v-42z" />
    <glyph glyph-name="page-fenlan" unicode="&#xe644;" 
d="M0 754v-740h1024v740h-1024zM85 100v568h199v-568h-199zM939 100h-598v568h598v-568z" />
    <glyph glyph-name="page-tupian" unicode="&#xe645;" 
d="M331 679q-11 11 -25 16.5t-29.5 5.5t-30 -6t-24.5 -16.5t-16 -24.5t-6 -30t6 -30q6 -13 16.5 -23.5t24.5 -16.5t29.5 -6t29.5 6t25 16q10 11 16 24q6 14 6 30t-6 30t-16 25zM460 176q1 106 77 180.5t181 73.5q49 0 95 -18v377q0 17 -13 30t-31 13h-657q-18 0 -30.5 -13
t-12.5 -30v-658q0 -17 12.5 -30t30.5 -13h362q-15 43 -14 88zM368 364q-31 -14 -80 -13q-35 1 -63.5 10t-48.5 24t-31 34q-11 20 -11 41v262q0 19 13 32t31 13h525q18 0 31 -13t13 -32v-174q-26 -1 -35.5 -0.5t-12.5 0.5h-5q-1 1 -13 0q-63 -1 -103 -16t-67 -37.5t-47 -47.5
q-20 -26 -42 -47q-23 -22 -54 -36zM732 385q-91 0 -157 -64.5t-67 -156.5q-1 -94 63.5 -160.5t156.5 -67.5q94 -1 160.5 64t67 158.5t-65 159.5t-158.5 67zM784 172v-115h-105v115h-39l92 91l91 -91h-39z" />
    <glyph glyph-name="page-huifu" unicode="&#xe64b;" 
d="M640 847l-209 -152q-9 -6 -9 -18q0 -11 9 -18l209 -152q11 -8 23.5 -1.5t12.5 20.5v84q47 -29 83 -70q85 -102 74 -235t-113 -219t-235 -75t-219 113q-87 103 -75 235q11 131 110 217q16 14 18 36t-12.5 38.5t-36.5 18t-38 -13.5q-64 -55 -101.5 -129t-44.5 -158
q-8 -85 18 -165.5t81 -146t130 -104.5t160.5 -46.5t166 18.5t146 81t104.5 130t46 161q2 16 2 37q0 155 -101 275q-67 80 -163 119v101q0 14 -13 21q-12 6 -23 -2v0zM395 322.5q0 -48.5 34.5 -82.5t82.5 -34t82.5 34t34.5 82.5t-34.5 82.5t-82.5 34t-82.5 -34t-34.5 -82.5z
" />
    <glyph glyph-name="caidan" unicode="&#xe604;" 
d="M962 784h-900q-12 0 -21 -9t-9 -21v-20q0 -12 9 -21t21 -9h900q12 0 21 9t9 21v20q0 12 -9 21t-21 9zM962 64h-900q-12 0 -21 -9t-9 -21v-20q0 -12 9 -21t21 -9h900q12 0 21 9t9 21v20q0 12 -9 21t-21 9zM62 464h460q12 0 21 9t9 21v20q0 12 -9 21t-21 9h-460
q-12 0 -21 -9t-9 -21v-20q0 -12 9 -21t21 -9zM62 224h580q12 0 21 9t9 21v20q0 12 -9 21t-21 9h-580q-12 0 -21 -9t-9 -21v-20q0 -12 9 -21t21 -9z" />
    <glyph glyph-name="yichu" unicode="&#xe620;" 
d="M511 749q-91 0 -174 -35.5t-143.5 -95.5t-96 -143t-35.5 -174t35.5 -174t96 -143t143.5 -96t174 -36t174 36t143 96t95.5 143t35.5 174t-35.5 174t-95.5 143t-143 95.5t-174 35.5zM777 250h-538v102h538v-102z" />
    <glyph glyph-name="queren" unicode="&#xe600;" 
d="M535 138.5q124 43.5 198 113.5t55 125q-17 48 -97.5 61t-185.5 -13l-24 67q46 38 62.5 95.5t-3.5 116.5q-26 75 -98 109.5t-147 8t-109.5 -98t-8.5 -147.5q21 -57 69.5 -92t107.5 -36l24 -68q-99 -46 -152.5 -105.5t-37.5 -107.5q20 -55 121.5 -63.5t225.5 35zM830 38
q-23 12 -64 20q-21 5 -46 8q66 43 97.5 89t18.5 84l-36 102q20 -56 -54 -125.5t-198 -113t-225.5 -35.5t-121.5 64l36 -102q7 -21 28 -36q7 -10 24 -19q23 -12 64 -20q86 -19 206.5 -19t206.5 19q41 8 64 20q27 14 27 32t-27 32v0zM545 -12h42q64 0 110 5t46 13
q0 13 -102 17q13 6 25 12q43 -2 76 -7q62 -10 62 -22t-62 -22q-64 -10 -155 -10q-45 0 -86 3q22 5 44 11v0zM762 -28q-84 -18 -203 -18q-86 0 -158 10q41 1 85 10q48 -4 101 -4q87 0 154 10t67 26q0 24 -135 33l22 12q37 -4 67 -11q28 -6 46.5 -13t24.5 -12t6 -9t-6 -9
t-24.5 -12t-46.5 -13z" />
    <glyph glyph-name="shitusheji" unicode="&#xe609;" 
d="M182 534h50v-39h-50v39zM182 268h51v-39h-51v39zM181 357h51v-39h-51v39zM188 709h646v-31h-646v31zM389 51h453v396l-32 -28v0v0v0v0v0v0v0v0v0v0v0v0v0v0v0v0v0v-1v0h-1v0v0v0v0v0v0v0v0v0v0v0v0v0v0v0l-1 -1v0v0v0v0v0v0v0v0v0v0v0h-1v-1v0v0v0v0v0v0v0h-1v0v0v-1v0v0
v0v0v0h-1v0v0v-1v0v0v0h-1v0v0v0v-1v0v0h-1v0v0v0v0v-1h-1v0v0v0v0v0l-1 -1v0v0v0v0v0l-1 -1v0v0v0v0h-1v-1v0v0v0h-1v0v-1v0v0h-1v0v-1v0h-1v0v0v-1v0h-1v0v0v-1h-1v0v0v0l-1 -1v0v0v0l-1 -1v0v0v0h-1v-1v0v0h-1v-1v0v0h-1v-1v0h-1v0v-1v0h-1v0v-1h-1v0v0v-1h-1v0v0l-1 -1
v0v0h-1v-1v0h-1v-1v0h-1v0v-1h-1v0v-1h-1v0v0l-1 -1v0v0l-1 -1v0v0h-1v-1v0h-1v-1v0h-1v-1v0h-1v-1h-1v0v-1h-1v0v-1h-1v0l-1 -1v0v0l-1 -1v0v0l-1 -1v0h-1v-1v0h-1v-1h-1v0v-1h-1v0l-1 -1v0l-1 -1v0v0l-1 -1v0h-1v-1h-1v-1v0h-1v-1h-1v0l-1 -1v0v-1h-1v0l-1 -1v0l-1 -1v0
h-1v-1v0l-1 -1v0h-1v-1h-1v-1h-1v0l-1 -1v0l-1 -1v0h-1v-1h-1v-1h-1v-1v0h-1v-1h-1v-1h-1v-1h-1v0l-1 -1v0l-1 -1v0l-1 -1v0l-1 -1h-1v0l-1 -1v0l-1 -1v0l-1 -1v0l-1 -1v0l-1 -1v0h-1v-1h-1v-1h-1v-1h-1l-1 -1v0l-1 -1v0l-1 -1v0l-1 -1v0l-1 -1v0l-1 -1h-1v-1h-1v-1h-1v-1
h-1h-1v-1h-1v-1h-1v-1l-1 -1h-1v-1h-1v-1h-1v-1h-1l-1 -1v0l-1 -1v0l-1 -1h-1v-1h-1v-1h-1l-1 -1v0l-1 -1v0l-1 -1h-1v-1h-1v-1l-1 -1h-1v-1h-1l-1 -1v0l-1 -1v0l-1 -1h-1v-1l-1 -1h-1v-1h-1v-1h-1l-1 -1v0l-1 -1l-1 -1v0l-1 -1h-1v-1h-1l-1 -1v-1h-1l-1 -1v0l-1 -1v0l-1 -1
l-1 -1v0l-1 -1h-1v-1h-1l-1 -1v-1h-1l-1 -1v0l-1 -1l-1 -1h-1v-1h-1l-1 -1v0l-1 -1l-1 -1v0l-1 -1h-1v-1l-1 -1h-1v-1l-1 -1h-1l-1 -1v0l-1 -1l-1 -1v0l-1 -1h-1v-1l-1 -1h-1l-1 -1v0l-1 -1l-1 -1v0l-1 -1l-1 -1h-1v-1h-1l-1 -1v-1h-1l-1 -1l-1 -1v0l-1 -1l-1 -1h-1v-1h-1
l-1 -1v-1h-1l-1 -1l-1 -1v0l-1 -1l-1 -1h-1v-1l-1 -1h-1l-1 -1v-1h-1l-1 -1l-1 -1v0l-1 -1l-1 -1h-1v-1h-1l-1 -1l-1 -1v0l-1 -1l-1 -1h-1l-1 -1v-1l-1 -1h-1l-1 -1v-1h-1l-1 -1l-1 -1v0l-1 -1l-1 -1h-1l-1 -1v-1h-1l-1 -1l-1 -1h-1v-1l-1 -1h-1l-1 -1v-1l-1 -1h-1l-1 -1
l-1 -1v0l-1 -1l-1 -1h-1l-1 -1v-1l-1 -1h-1l-1 -1l-1 -1v0l-1 -1l-1 -1h-1l-1 -1l-1 -1v-1h-1l-1 -1l-1 -1h-1v-1l-1 -1l-1 -1h-1l-1 -1l-1 -1v-1h-1l-1 -1l-1 -1h-1l-1 -1v-1l-1 -1h-1l-1 -1l-1 -1l-1 -1v0l-1 -1l-1 -1h-1l-1 -1l-1 -1v-1h-1l-1 -1l-1 -1l-1 -1h-1l-1 -1
v-1l-1 -1h-1l-1 -1l-1 -1l-1 -1h-1v-1l-1 -1l-1 -1h-1l-1 -1l-1 -1l-1 -1v0l-1 -1l-1 -1l-1 -1h-1l-1 -1l-1 -1l-1 -1v0l-1 -1l-1 -1l-1 -1l-1 -1h-1l-1 -1l-1 -1v-1h-1l-1 -1l-1 -1l-1 -1h-1l-1 -1l-1 -1l-1 -1v-1h-1l-1 -1l-1 -1l-1 -1h-1l-1 -1l-1 -1l-1 -1v-1h-1l-1 -1
l-1 -1l-1 -1l-1 -1h-1l-1 -1l-1 -1l-1 -1h-1v-1l-1 -1l-1 -1l-1 -1h-1l-1 -1l-1 -1l-1 -1l-1 -1h-1l-1 -1v-1l-1 -1l-1 -1h-1l-1 -1l-1 -1l-1 -1l-1 -1l-1 -1h-1l-1 -1l-1 -1l-1 -1l-1 -1v0l-1 -1l-1 -1l-1 -1l-1 -1h-1l-1 -1l-1 -1l-1 -1l-1 -1l-1 -1h-1l-1 -1l-1 -1l-1 -1
l-1 -1v0l-1 -1l-1 -1l-1 -1l-1 -1l-1 -1h-1l-1 -1l-1 -1l-1 -1l-1 -1l-1 -1h-1l-1 -1l-1 -1l-1 -1l-1 -1l-1 -1h-1l-1 -1l-1 -1v-1l-1 -1l-1 -1l-1 -1h-1l-1 -1l-1 -1l-1 -1l-1 -1l-1 -1h-1l-1 -1l-1 -1l-1 -1l-1 -1l-1 -1l-1 -1h-1l-1 -1l-1 -1l-1 -1l-1 -1l-1 -1l-1 -1h-1
l-1 -1l-1 -1l-1 -1l-1 -1l-1 -1l-1 -1h-1l-1 -1l-1 -1l-1 -1l-1 -1l-1 -1l-1 -1h-1l-1 -1l-1 -1l-1 -1l-1 -1l-1 -1l-1 -1l-1 -1v0zM786 59h-20v18q0 10 10 10t10 -10v-18v0zM694 59h-19v18q0 10 9.5 10t9.5 -10v-18v0zM603 59h-19v18q0 10 9.5 10t9.5 -10v-18v0zM512 59
h-20v18q0 10 10 10t10 -10v-18v0zM631 186l120 105l44 38l-1 -223h-255zM68 792v-821q0 -14 11 -23.5t25 -9.5h816q13 0 23.5 8.5t10.5 20.5v833q0 9 -10 19.5t-17 10.5h-828q-13 0 -22 -12t-9 -26v0zM880 1l-24 -1h-707q-4 0 -12.5 8t-8.5 12v715q0 8 9 18.5t15 10.5h718
q8 0 16.5 -10.5t8.5 -18.5v-705q0 -18 -15 -29v0v0zM617 446h-137v-144h137v144v0zM590 330h-83v88h83v-88zM357 452q-31 0 -52.5 -23t-21.5 -55t21.5 -55t52.5 -23t52.5 23t21.5 55t-21.5 55t-52.5 23v0zM357 324q-20 0 -33.5 14.5t-13.5 35.5t13.5 35.5t33.5 14.5
t33.5 -14.5t13.5 -35.5t-13.5 -35.5t-33.5 -14.5zM549 487q30 0 52 22.5t22 55t-22 55t-52.5 22.5t-52.5 -22.5t-22 -55t22 -55t53 -22.5v0zM548.5 614q19.5 0 33.5 -14.5t14 -35t-14 -35t-33.5 -14.5t-33.5 14.5t-14 35t14 35t33.5 14.5zM357 642q-31 0 -52.5 -22.5
t-21.5 -55t21.5 -55t52.5 -22.5t52.5 22.5t21.5 55t-21.5 55t-52.5 22.5v0zM357 515q-20 0 -33.5 14.5t-13.5 35t13.5 35t33.5 14.5t33.5 -14.5t13.5 -35t-13.5 -35t-33.5 -14.5zM182 622h50v-38h-50v38zM182 446h50v-39h-50v39zM182 179h51v-40h-51v40zM182 90h51v-40h-51
v40z" />
    <glyph glyph-name="cn-shanchu" unicode="&#xe636;" 
d="M557 371l266 264q9 9 9 22t-9.5 22.5t-22.5 9.5t-23 -9l-265 -264l-263 264q-9 9 -22.5 9t-23 -9t-9.5 -22.5t10 -22.5l263 -264l-265 -264q-10 -9 -10 -22.5t9.5 -22.5t22.5 -9t23 9l265 264l265 -267q10 -9 23 -9t22.5 9.5t9.5 22.5t-9 23z" />
    <glyph glyph-name="page-checkbox" unicode="&#xe64f;" 
d="M832 788h-640q-40 0 -68 -28t-28 -68v-640q0 -40 28 -68t68 -28h640q40 0 68 28t28 68v640q0 40 -28 68t-68 28zM727 446l-256 -259v-1v0q-2 -1 -7 -4q-1 -1 -2 -1.5t-2 -1.5q-6 -2 -12 -2t-12 2q-1 1 -2 1.5t-1 1.5q-6 3 -7 4v1h-1l-126 129q-9 10 -9 23t9.5 22.5t23 9
t22.5 -9.5l103 -106l234 236q9 9 22.5 9t22.5 -9.5t9.5 -22.5t-9.5 -22z" />
    <glyph glyph-name="page-dingwei" unicode="&#xe63f;" 
d="M894 -55h-782q-28 0 -41 21.5t0 46.5l114 213q5 10 16 13.5t21 -2t13.5 -16t-2.5 -21.5l-106 -199h749l-186 306l-137 -225q-15 -24 -40 -24q-24 -2 -40 23t-38.5 65t-67 123t-72.5 165t-26 135q2 60 23.5 109.5t55 81.5t74 50t83.5 20q41 2 80.5 -12t74 -43.5
t59.5 -79.5t33 -114q1 -11 -6 -20t-18 -10.5t-20.5 5.5t-10.5 18q-7 55 -27 96t-47 63.5t-56.5 32.5t-59.5 8q-70 -3 -124.5 -58.5t-58.5 -148.5q-2 -50 35 -143t76 -166t77 -135l138 226q15 24 40 24t39 -24l204 -335q15 -25 2.5 -47t-41.5 -22v0zM513.5 437
q-41.5 0 -70.5 29.5t-29 71t29 71t70.5 29.5t71 -29.5t29.5 -71t-29.5 -71t-71 -29.5zM513.5 582q-18.5 0 -31.5 -13t-13 -31.5t13 -32t31.5 -13.5t32 13.5t13.5 32t-13.5 31.5t-32 13z" />
    <glyph glyph-name="xiaoyudengyu" unicode="&#xe62c;" 
d="M725 325v-53l-426 158v52l426 158v-49l-372 -135zM725 171v-43l-426 154v49z" />
    <glyph glyph-name="duixiangzhuce" unicode="&#xe60a;" 
d="M827 542q-27 26 -81 79t-82 80q-5 5 -7 5t-8 -6q-329 -328 -370 -369q-9 -9 -12 -20q-13 -48 -58 -212q-4 -15 -5 -19q0 -6 6 -3h2q38 11 114.5 32.5t115.5 31.5q7 2 14 9q124 123 371 370q8 8 8 11t-8 11zM736 542l-140 -140q-171 -172 -206 -206q-7 -8 -16 -10
q-11 -3 -23.5 -6.5t-28 -8t-23.5 -6.5t-7 3q16 60 18 67q4 20 22 38l306 306q5 5 15.5 15t15.5 15t11 0q11 -10 30 -29t27 -26q6 -6 -1 -12zM1023 781q-4 48 -40 81.5t-87 33.5t-88 -37l-46.5 -46.5t-45.5 -44.5q-6 -6 0 -13q22 -20 59 -55q59 -58 111 -109q6 -6 12 0l45 45
l45 45q34 35 36 89q-1 9 -1 11zM939 722l-22 -22l-23 -23q-2 -3 -5 0q-25 24 -56 55q-1 0 -12 11t-17 16q-3 3 0 7q7 7 22.5 22t22.5 23q19 18 44.5 18t43.5 -16.5t20 -40.5v-3v-2q-1 -27 -18 -45zM1021 529q-1 -1 -6 -5l-32.5 -32.5l-32.5 -32.5q1 -256 0 -349
q0 -76 -55 -125q-47 -41 -106 -41h-557q-57 1 -102 39q-58 50 -58 127v546q0 76 56 126q42 37 98 40q9 0 144 1h216q33 32 65 64q5 5 4 7q0 1 -7 1h-301q-155 -1 -168 -1q-65 -3 -114 -47q-65 -58 -65 -147v-634q0 -91 67 -149q53 -45 119 -45h649q69 0 122 48q65 57 65 145
q1 101 0 456q0 6 -1 8z" />
    <glyph glyph-name="tuichuxitong" unicode="&#xe61a;" 
d="M801 -38h-466v50v152h50v-152h423v744h-423v-152h-50v135v67h625v-84v-760h-159zM267 604v-440l-203 220zM639 283h-372v202h372v-202z" />
    <glyph glyph-name="zy-equal" unicode="&#xe62d;" horiz-adv-x="1490" 
d="M393 224h704q20 0 34 14t14 34t-14 34t-34 14h-704q-20 0 -34 -14t-14 -34t14 -34t34 -14zM393 448h704q20 0 34 14t14 34t-14 34t-34 14h-704q-20 0 -34 -14t-14 -34t14 -34t34 -14z" />
    <glyph glyph-name="bianmaguize" unicode="&#xe60c;" 
d="M693 896l-693 -693v0l331 -331l693 693zM331 -38l-241 241l60 60l116 -115l45 45l-115 115l63 64l116 -115l45 45l-115 115l63 64l116 -115l45 45l-115 115l65 65l115 -115l45 45l-115 116l65 65l115 -116l46 46l-116 115l59 59l241 -241z" />
    <glyph glyph-name="biaosheji" unicode="&#xe60d;" 
d="M736 832h-32h-160h-32h-160h-32h-224v-320v-32v-160v-32v-352h416h32h160h32h192v160v32v160v32v160v32v320h-192zM352 672h160v-160h-160v160zM128 672h192v-160h-192v160zM128 480h192v-160h-192v160zM704 -32h-160v128h160v-128zM896 -32h-160v128h160v-128zM896 128
h-160v160h160v-160zM896 320h-160v90l-32 -32v-58h-58l-32 -32h90v-160h-160v90l-32 -32v-58v0v-32v0v-128h-384v320h192v-160h32v1l110 36v0v0v0v0l-75 75v0v0v0v0l-35 -106v154h54l32 32h-86v160h160v-86l32 32v54h54l32 32h-86v160h160v-160v0l32 -32v0h160v-160z
M896 512h-160v160h160v-160zM603 457v0v0v0l76 -75v0v0l56 56l-76 75zM404 257l75 -75l186 185l-76 76z" />
    <glyph glyph-name="page-zhedie" unicode="&#xe646;" 
d="M63 832h600v-599h-600v599zM699 662v-465h-465v-113h578v578h-113zM848 502v-454h-453v-111h564v565h-111z" />
    <glyph glyph-name="chaxunshejiguanli" unicode="&#xe60e;" 
d="M0 -110v102q0 7 5.5 12.5t12.5 5.5h988q7 0 12.5 -5.5t5.5 -12.5v-102q0 -7 -5.5 -12.5t-12.5 -5.5h-988q-7 0 -12.5 5.5t-5.5 12.5v0zM108 556h168q7 0 12.5 -5t5.5 -13v-405q0 -8 -5.5 -13t-12.5 -5h-168q-7 0 -12.5 5t-5.5 13v405q0 8 5.5 13t12.5 5v0zM428 703h168
q7 0 12.5 -5.5t5.5 -12.5v-552q0 -8 -5.5 -13t-12.5 -5h-168q-7 0 -12.5 5t-5.5 13v552q0 7 5.5 12.5t12.5 5.5v0zM748 896h168q7 0 12.5 -5.5t5.5 -12.5v-745q0 -8 -5.5 -13t-12.5 -5h-168q-7 0 -12.5 5t-5.5 13v745q0 7 5.5 12.5t12.5 5.5z" />
    <glyph glyph-name="rizhiguanli" unicode="&#xe60f;" 
d="M287 520h80v-28h-80v28zM398 316h-111v-28h111q-1 20 0 28zM603 123h-316v-28h344zM662 11h-486v752h255v-218h254v-126q22 -24 30.5 -55t3.5 -83l53 -53v317l-305 305h-377v-925h618q-36 33 -46 86zM519 676l44 -44l-44 -1v45zM934 26q4 50 -31 84q-24 23 -57 28.5
t-61 -8.5l-140 140q15 29 10 63t-29 59q-34 35 -84 30l38 -80l-53 -52l-80 38q-5 -50 29 -84q24 -23 56 -29t61 6l141 -142q-14 -29 -8.5 -62t29.5 -57q35 -34 85 -29l-39 79l52 53z" />
    <glyph glyph-name="buxuan" unicode="&#xe629;" 
d="M528 850q-91 0 -174 -35.5t-143 -95.5t-95 -142.5t-35 -173.5t35 -174t95 -142.5t143 -95t174 -35.5t173.5 35.5t142.5 95t95.5 142.5t35.5 174t-35.5 173.5t-95.5 142.5t-142.5 95.5t-173.5 35.5zM546 246q-27 -28 -66 -28t-66 28l-180 185l56 59l168 -172q9 -10 22 -10
t22 10l263 269l57 -58z" />
    <glyph glyph-name="page-checked" unicode="&#xe650;" 
d="M917 657q-15 15 -40.5 10.5t-47.5 -26.5l-418 -418l-258 258q-14 14 -33 15.5t-31.5 -11t-11 -31.5t15.5 -33l285 -285q2 -3 11 -8v0q15 -15 40.5 -10t47.5 26l424 425q22 21 26.5 47t-10.5 41z" />
    <glyph glyph-name="zhengque" unicode="&#xe62e;" 
d="M854 746l-446 -446l-210 209l-126 -126l336 -338l572 572z" />
    <glyph glyph-name="tianjia" unicode="&#xe62f;" 
d="M616 488h-622v-104h622v104zM616 695h-622v-104h622v104zM823 280v208h-104v-208h-207v-103h207v-207h104v207h207v103h-207zM-6 177h414v103h-414v-103z" />
    <glyph glyph-name="shujuzidian" unicode="&#xe610;" 
d="M817 615q-1 -1 -1 -4q-1 0 -1 -1t-1 -3v-1l-0.5 -0.5l-0.5 -0.5q0 -2 -1 -3v-0.5v-0.5q-1 -1 -1 -2v-0.5t-1 -0.5v-2h-0.5h-0.5q0 -2 -1 -2q0 -2 -0.5 -2h-0.5v-1q-1 -1 -1 -2q-1 -1 -1.5 -2t-1.5 -2q0 -1 -1 -2q0 -1 -1 -2q-1 -2 -3 -4v0q-1 -2 -3 -4v0h-0.5t-0.5 -1
l-2 -2v0v-1l-5 -5v0l-11 -11v0l-6 -4v-1q-6 -5 -13 -9q32 -7 62 -21v97h-2zM0 703q7 -62 95.5 -109.5t221.5 -61.5q28 -3 57 -4q18 -1 36 -1h11q41 1 81 5q48 5 92 15l8 2q28 7 54 15q5 2 9 4q11 3 21 7q6 3 13 6t13 6q3 2 6 3l18 10v0q13 8 23 16q3 1 6 4q10 8 18 16l4 4
q8 8 14 17q3 4 5 9q3 4 5 9q1 3 2 5q5 12 6 23v4v5q0 50 -54.5 92.5t-149 67t-206 24.5t-205.5 -24.5t-149 -67t-55 -92.5v-5v-4zM458 17q-7 -1 -11 -1h-3h-15h-3q-9 -1 -16.5 -1t-16.5 1h-1h-2h-15h-3q-8 0 -16 1h-2q-8 1 -15 1h-0.5h-0.5q-7 1 -16 2h-2q-8 1 -15 1
q-1 1 -3 1q-8 1 -15 2v0q-7 1 -15 2h-1.5h-0.5q-7 1 -14 3h-2q-8 2 -15 3h-1q-15 3 -29 7h-0.5h-0.5l-14 4h-1q-7 2 -13 4h-1q-7 2 -13 5v0q-7 2 -13 4h-0.5h-0.5v0q-62 23 -101 55t-48 68h-3v-123q0 -61 80.5 -109.5t207.5 -66.5v0v0q5 0 13 -1q2 -1 3 -1q7 -1 13 -1v0
q6 -1 13 -2h4q7 0 13 -1v0q6 0 14 -1h3h14v0q6 -1 14 -1h4h14h14h3q8 0 14 1v0h14h3q8 1 14 1v0q6 1 14 1h3q7 1 13 2v0q6 0 13 1q2 0 4 1q7 1 13 1v0q78 11 142 35q-128 7 -216 102zM0 269v-3q1 -1 1 -2v-3v-1q0 -1 1 -3v-1q1 -3 1 -5v0q1 -2 1 -4q1 0 1 -1v0q0 -2 1 -3v-1
l1.5 -3t0.5 -2q1 -1 2 -3v0v-1l2 -4h0.5h0.5l2 -4v-0.5v-0.5q1 -1 2 -3q1 0 1 -1q1 -1 2 -3l1 -1q1 -1 2 -3q1 0 1 -0.5v-0.5q2 -2 3 -4h0.5h0.5q1 -2 3 -4l0.5 -0.5l0.5 -0.5l2 -2t1 -2q2 -1 3 -2l0.5 -0.5l0.5 -0.5l4 -4v0l4 -4h1v0q2 -2 4 -3q0 -1 1 -1l3 -3t2 -1l3 -3h1
v0q5 -4 11 -7v-1q2 -1 5 -3h1q2 -2 4 -3q1 0 1 -0.5t1 -0.5q2 -1 5 -3v0l12 -6l1 -1q3 -1 5 -3h1v0q3 -1 6 -3h0.5h0.5q13 -6 27 -12h0.5h0.5q3 -1 7 -2v-1q15 -5 31 -10v0q49 -15 106 -23v0v0h1.5h1.5q4 -1 8 -1h0.5h1.5q2 -1 3 -1h0.5h0.5q4 0 9 -1h1h2v0h2.5t1.5 -1h7
h1.5h0.5q2 -1 4 -1v0v0q6 0 11 -1h1.5h0.5v0h2.5h1.5h8l0.5 -0.5t1.5 -0.5h3h1h11h1h1v0h2h2q4 -1 7 -1q1 0 2 0.5t1.5 0.5h1.5h2v0h-1v0v-1h7h6q-33 66 -33 141v1v3v0q-1 0 -2 -0.5l-1 -0.5q-14 1 -16 1h-0.5h-1.5q-9 1 -15 1h-0.5h-0.5l-16 2h-2q-8 1 -15 2h-3q-8 1 -15 2
v0q-7 1 -15 2h-1.5h-0.5q-7 2 -14 3h-2q-8 2 -15 3h-1q-15 3 -29 7h-0.5h-0.5l-14 4h-1q-7 2 -13 4h-1q-7 3 -13 5v0q-2 0 -6.5 1.5t-6.5 2.5v0v0l-0.5 -0.5l-0.5 -0.5v0l-14 6h-0.5h-0.5q-7 3 -13 6h-1v0q-7 3 -13 7h-1q-7 3 -13 7v0l-12 6v0.5v0.5q-12 7 -23 14v0
q-42 31 -55 67q-2 5 -3 9h-3v-122v-4v-1v0zM0 487v-3l1 -2v-2v-2q1 -1 1 -3v-0.5v-0.5q1 -4 2 -9h1v-1t1 -3v-1l2 -4v0q22 -50 97.5 -87.5t182.5 -51.5v0v0q5 -1 13 -2q2 0 3 -1q7 0 13 -1v0q6 -1 13 -1q2 0 4 -1q7 0 13 -1v0h14q2 -1 3 -1v0h21q21 83 82 144h-1h-1h-2v0h-5
q-8 -1 -11 -1h-2h-1v0h-15h-3h-16.5h-16.5h-1h-2h-15h-0.5h-0.5h-2q-4 1 -12 1h-1.5h-2.5v0h-2t-2.5 0.5t-2.5 0.5h-10h-1v0q-2 1 -9 1q-5 1 -7 1h-1h-1q-8 1 -15 2h-0.5h-1h-0.5h-1q-8 1 -15 2v0v0q-2 0 -5 1h-2t-2 0.5t-2 0.5h-2.5h-1.5q-1 0 -1.5 0.5l-0.5 0.5h-2.5h-1.5
q-8 2 -10 2h-1v0h-1q-8 2 -15 3l-1 1q-7 1 -15 3q-7 1 -14 3h-1l-14 4h-1q-7 3 -13 4l-1 1q-7 2 -13 4v0q-7 2 -13 4l-0.5 0.5l-0.5 0.5v0q-4 1 -9 3l-2 1l-6 2q-2 1 -3 1q-3 2 -6 3l-1 0.5l-1 0.5q-5 2 -8 4h-1v0q-4 2 -7 3l-2 1q-3 2 -6 3l-2 1q-4 2 -7 4v0v0q-4 2 -8 5v0
q-3 2 -7 4l-0.5 0.5l-0.5 0.5q-3 2 -6 3l-1 1q-10 7 -19 14v1q-3 2 -5 4h-1q-5 5 -10 11q-3 2 -5 5l-1 1v0l-2 2v1h-1q-1 2 -3 4v0q-1 2 -3 4q0 1 -1 2q0 1 -1 2t-1 2q-1 1 -1 2l-2 2v1v0l-1 2h-0.5t-0.5 1v1q-1 1 -1 2v0v0q-1 2 -2 3v0.5v0.5q0 1 -1 3v0.5t-0.5 0.5t-0.5 1
q-1 2 -1 3v1q-1 3 -1 4h-3v-122v-5v-0.5v-0.5zM1020 -49l-112 112v0q57 74 57 167q0 114 -80.5 194.5t-194.5 80.5t-194 -80.5t-80 -194t80 -194t194 -80.5q74 0 138 37l117 -117q10 -11 23 2l50 50q13 13 2 23zM480 230.5q0 87.5 61.5 149t148.5 61.5t149 -61.5t62 -149
t-62 -149t-149 -61.5t-148.5 61.5t-61.5 149zM904 58v0v0zM834 -4v0v0zM839 0v0v0zM845 4v0v0zM850 8h1h-1zM856 12v0v0zM861 16v0v0zM866 20v0v0zM871 24v0v0zM876 29v0v0zM881 33v0v0zM886 38v0v0zM899 53v0v0zM895 48v0v0zM891 43v0v0z" />
    <glyph glyph-name="page-xialacaidan" unicode="&#xe64e;" 
d="M0 769h641v-127h-641v127v0zM0 511h641v-127h-641v127v0zM0 256h641v-127h-641v127v0zM832 258l-190 253h382z" />
    <glyph glyph-name="page-danxuan" unicode="&#xe653;" 
d="M511 893q-104 0 -198 -40.5t-162 -108.5t-107.5 -162t-39.5 -198t40 -198t108.5 -162.5t162.5 -108.5t197.5 -40t198 40t162.5 108.5t108.5 162.5t40.5 197.5t-40.5 198t-108.5 162.5t-163 108.5t-199 40.5zM513.5 -30q-113.5 0 -209.5 55.5t-151.5 151.5t-55.5 209.5
t55.5 209.5t151.5 152t209.5 56t209.5 -56t152 -152t56 -209.5t-56 -209.5t-152 -151.5t-209.5 -55.5zM821 569q-13 14 -32 14t-32 -14l-293 -308l-168 156q-13 14 -31.5 14t-32 -14t-13.5 -33.5t13 -33.5l196 -182q13 -13 30.5 -13.5t31.5 11.5q14 2 24 13l307 323
q13 14 13 33.5t-13 33.5z" />
    <glyph glyph-name="xiugai" unicode="&#xe621;" horiz-adv-x="1025" 
d="M89 243l627 627q26 26 57 26t56 -26l170 -169q26 -26 26 -56.5t-26 -56.5l-628 -627l-312 -87q-33 -7 -48.5 8.5t-8.5 48.5zM151 192l-64 -233l234 64zM914 616q16 16 19 22.5t0 12t-19 22.5l-113 113q-20 21 -28 21t-28 -21l-113 -113l169 -170zM377 80l368 367
l-170 169l-367 -367q7 -7 72 -72.5t97 -96.5z" />
    <glyph glyph-name="shuoming" unicode="&#xe630;" 
d="M592 662q54 0 91 32q38 32 38 78q0 45 -38 78t-91 33q-52 0 -91 -33q-38 -33 -38 -78q0 -46 38 -78t91 -32zM627 18q-42 0 -59 13t-17 48q0 14 5 40q5 25 12 49l71 175q8 26 11 53q3 32 3 41q0 41 -60 90q-42 34 -120 34q-46 0 -92 -14q-50 -14 -102 -33l-14 -55
q5 2 17.5 2.5t20.5 2.5q23 5 43 5q5 0 15 0.5t14.5 0.5t11 -0.5t10.5 -2t7 -4.5q2 -2 3.5 -5t2.5 -5.5t1.5 -7.5t0.5 -8v-10.5v-10.5q0 -20 -5 -41q-2 -7 -2.5 -23t-3.5 -25l-54 -176q-7 -30 -10 -50q-4 -22 -4 -43q0 -54 44 -90q44 -35 122 -35q52 0 90 13q33 11 104 36
l14 54q-10 -5 -36 -11q-25 -7 -44 -7v0z" />
    <glyph glyph-name="zidingyi" unicode="&#xe631;" 
d="M948 267l-76 31q13 68 0 137l79 33q9 3 5 12l-54 129q-3 8 -12 5l-80 -34q-38 52 -90 87l30 73q4 9 -5 12l-129 53q-9 4 -12 -5l-31 -75q-60 10 -118 -1l-35 83q-4 9 -12 5l-129 -54q-9 -3 -5 -12l34 -83q-55 -39 -92 -95l-86 35q-8 3 -12 -6l-53 -128q-4 -9 5 -13
l90 -37q-8 -55 1 -110l-87 -36q-8 -3 -5 -12l54 -129q4 -9 12 -5l85 36q35 -51 86 -87l-38 -93q-4 -9 5 -13l129 -53q9 -3 12 6l37 90q64 -12 129 0l34 -83q4 -9 13 -5l128 54q9 3 5 12l-34 83q47 33 81 79l81 -33q8 -3 12 5l53 129q4 9 -5 13zM723.5 273
q-36.5 -89 -125 -126t-177.5 -0.5t-126 125.5t-0.5 177.5t125 125.5t177.5 0.5t126 -125t0.5 -177.5zM510.5 460q-40.5 0 -69.5 -29t-29 -69.5t29 -69.5t69.5 -29t69.5 29t29 69.5t-29 69.5t-69.5 29z" />
    <glyph glyph-name="bianji" unicode="&#xe632;" 
d="M874 691l-95 95q-12 12 -29 12t-29 -12l-75 -75l158 -157l70 79q12 12 12 29t-12 29zM141 210v-157h157l456 460l-158 157zM473.5 132q-17.5 0 -29.5 -12.5t-12 -29.5t12 -29t29.5 -12t29.5 12t12 29t-12 29.5t-29.5 12.5zM640 132q-17 0 -29 -12.5t-12 -29.5t12 -29
t29 -12t29.5 12t12.5 29t-12.5 29.5t-29.5 12.5zM806.5 132q-17.5 0 -29.5 -12.5t-12 -29.5t12 -29t29.5 -12t29.5 12t12 29t-12 29.5t-29.5 12.5z" />
    <glyph glyph-name="yonghu" unicode="&#xe633;" 
d="M703 740v0q-79 79 -191.5 79t-190.5 -79q-79 -79 -79 -190.5t79 -190.5v0v-1q79 -79 190.5 -79t190.5 79.5t79 191t-79 190.5h1zM634 239v0q-6 -3 -16.5 -8t-42 -13t-64 -8t-63 7.5t-44.5 14.5l-14 7q-110 0 -187 -78q-78 -77 -78 -187v-25h774v25q0 109 -78 187v0
q-79 78 -187 78v0z" />
    <glyph glyph-name="page-riqi" unicode="&#xe640;" 
d="M559 431h-94v-94h94v94zM559 268h-94v-93h94v93zM931 803h-93v70q0 9 -7 16t-16.5 7t-16.5 -7t-7 -16v-70h-558v70q0 9 -7 16t-16.5 7t-16.5 -7t-7 -16v-70h-93q-38 0 -65.5 -27.5t-27.5 -65.5v-745q0 -38 27.5 -65.5t65.5 -27.5h838q38 0 65.5 27.5t27.5 65.5v745
q0 38 -27.5 65.5t-65.5 27.5zM977 -35q0 -19 -13.5 -32.5t-32.5 -13.5h-838q-19 0 -32.5 13.5t-13.5 32.5v559h930v-559zM977 570h-930v140q0 19 13.5 32.5t32.5 13.5h93v-69q0 -10 7 -17t16.5 -7t16.5 7t7 17v69h558v-69q0 -10 7 -17t16.5 -7t16.5 7t7 17v69h93
q19 0 32.5 -13.5t13.5 -32.5v-140zM791 268h-93v-93h93v93zM791 431h-93v-94h93v94zM559 105h-94v-93h94v93zM326 105h-93v-93h93v93zM326 431h-93v-94h93v94zM326 268h-93v-93h93v93z" />
    <glyph glyph-name="page-scfj" unicode="&#xe637;" 
d="M959 128q0 -93 -65.5 -158.5t-158.5 -65.5q-92 0 -157.5 65t-66.5 158q-57 -72 -150 -89.5t-176 29.5q-87 50 -113 144t23 179v0v0l3 4l236 378v1q42 67 121 85.5t149 -21.5t90 -116t-22 -143h-1v0l-111 -179l-1 1l-122 -195l-0.5 -1t-0.5 -1.5t-1 -1.5l-1 -1l-1 -3v0
q-31 -44 -85.5 -56t-102.5 15.5t-62.5 79.5t11.5 98v1l3 4v0v0.5t0.5 0.5h0.5l206 330l43 -25l-207 -331v0l-3 -4q1 0 1 0.5t1 0.5q-17 -30 -8 -63t40 -50.5t65.5 -10t54.5 36.5q-1 0 -1 -1t-1 -1l2 2v1v0l1 1l1 1l0.5 1l0.5 1v0v1l171 272v0l63 101q31 50 16.5 106.5
t-66.5 86.5t-110.5 15.5t-89.5 -63.5l-237 -379v1q-41 -68 -20.5 -144.5t90.5 -117t150 -22t123 85.5v0v0l2 2l206 330l0.5 1l0.5 1l43 -26l-0.5 -0.5l-0.5 -0.5v0l-92 -147q45 20 92 20q93 0 158.5 -65.5t65.5 -158.5v0zM672 135v-112h114v112h62l-112 121l-128 -121h64z
" />
    <glyph glyph-name="page-biaoqiandaohang" unicode="&#xe6a4;" 
d="M994 406l-461 460q-30 30 -72 30h-359q-42 0 -72 -30t-30 -72v-359q0 -42 30 -73l461 -460q30 -30 72 -30q43 0 72 30l359 359q30 29 30 72q0 42 -30 73v0zM179 640q-32 0 -54.5 22.5t-22.5 54.5t22.5 54.5t54.5 22.5t54.5 -22.5t22.5 -54.5t-22.5 -54.5t-54.5 -22.5v0z
" />
    <glyph glyph-name="page-daohangsousuo" unicode="&#xe68d;" 
d="M773 100l-10 -9q-119 -103 -276 -103q-85 0 -162 32t-137 93q-81 81 -110 190.5t0 219t110 190.5q60 60 137 92t162 32t162.5 -32t137.5 -92q78 -79 108 -184t5 -211.5t-99 -189.5l-9 -10l168 -169l-18 -18zM487.5 812q-79.5 0 -152.5 -30.5t-129 -86.5
q-76 -77 -103 -179.5t0 -205.5t103 -179q56 -57 129 -87t152.5 -30t152 30t128.5 87q58 57 87.5 131.5t29.5 150t-29.5 150t-87.5 132.5q-56 56 -128.5 86.5t-152 30.5z" />
    <glyph glyph-name="daorudaochu" unicode="&#xe611;" horiz-adv-x="1029" 
d="M552 827l3 -169h-537v-196h1010l-476 365v0zM482 -59l3 169h532v196h-1011l476 -365v0z" />
    <glyph glyph-name="page-baocun" unicode="&#xe63c;" 
d="M709 160h-393v-56h393v56zM653 776h-505v-784h729v560zM260 664h337v-224h-337v224zM821 48h-617v280h617v-280zM709 272h-393v-56h393v56zM316 496h113v112h-113v-112z" />
    <glyph glyph-name="shanchu" unicode="&#xe634;" 
d="M574 705v63h-195v-63h-257v-66h716v66h-264zM192 576v-576h576v576h-576zM384 128h-64v320h64v-320zM512 128h-64v320h64v-320zM640 128h-64v320h64v-320z" />
    <glyph glyph-name="page-shanglacaidan" unicode="&#xe83d;" 
d="M492 104h-377q-20 0 -34 -13t-14 -30.5t14 -30t34 -12.5h377q20 0 34 12.5t14 30t-14 30.5t-34 13zM493 319h-378q-20 0 -34 -12.5t-14 -30.5t14 -30.5t34 -12.5h378q19 0 33 12.5t14 30.5t-14 30.5t-33 12.5zM115 663h764q20 0 34.5 12.5t14.5 30.5t-14.5 30.5
t-34.5 12.5h-764q-20 0 -34 -12.5t-14 -30.5t14 -30.5t34 -12.5zM493 534h-378q-20 0 -34 -12.5t-14 -30.5t14 -30.5t34 -12.5h378q19 0 33 12.5t14 30.5t-14 30.5t-33 12.5zM946 418l-102 128q-19 23 -45.5 23t-45.5 -23l-102 -128q-18 -23 -9.5 -39.5t39.5 -16.5h74v-297
q0 -20 13 -33.5t30.5 -13.5t30.5 13.5t13 33.5v297h74q31 0 39.5 16.5t-9.5 39.5z" />
    <glyph glyph-name="page-dropdown" unicode="&#xe642;" 
d="M872 -128h-694q-67 0 -122.5 52.5t-55.5 116.5v704q0 65 55 108t123 43h694q66 0 109 -42.5t43 -108.5v-704q0 -70 -44.5 -119.5t-107.5 -49.5zM178 768q-13 0 -25 -4.5t-18.5 -10t-6.5 -8.5v-704q0 -10 17.5 -25.5t32.5 -15.5h694q9 0 16.5 13t7.5 28v704q0 12 -5 17.5
t-19 5.5h-694zM713 258q-16 -29 -39.5 -29t-40.5 29l-126 218q-16 29 -4.5 49t44.5 20l252 1q33 0 44.5 -20.5t-4.5 -49.5z" />
    <glyph glyph-name="jueseguanli" unicode="&#xe612;" 
d="M882 896h-114h-300h-326l-114 -114v-910h683l57 57v739l-56 57h-570l57 57l626 1l57 -57v-739h114v796l-114 113v0zM198 146q73 78 125 95q11 4 19.5 25t3.5 37q0 1 -1 4q-3 5 -4 6q-18 19 -27 43q-1 0 -1 1v0v0q0 1 -0.5 2t-0.5 2l-0.5 1.5l-0.5 1.5q-2 5 -3 9v0l-1 4
l-1 10v0v0q0 1 -0.5 4t-0.5 4q0 40 28.5 68.5t68.5 28.5v0q41 0 69 -28.5t28 -68.5v-4.5t-1 -3.5h1v0q0 -4 -1 -9q-1 -1 -1 -2v-3v0q-1 -2 -3 -9l-0.5 -1.5t-0.5 -2t-2 -3.5v0v0v-1q-9 -23 -27 -43q-2 -2 -4 -6l-2 -4q-5 -16 3.5 -37t19.5 -25q54 -18 125 -95v-43h-76h-256
h-76v43z" />
    <glyph glyph-name="quanxianjiaose" unicode="&#xe622;" 
d="M660 456q40 34 62.5 82.5t22.5 103.5q0 101 -71.5 173t-173 72t-173.5 -72t-72 -173q0 -55 22.5 -103.5t62.5 -82.5q-136 -58 -221.5 -198t-85.5 -313q0 -19 13.5 -32.5t32.5 -13.5h175q19 0 32.5 13.5t13.5 32.5t-13.5 32.5t-32.5 13.5h-127q10 112 61.5 205t134 146.5
t177.5 53.5q120 0 217 -84l-111 -6q-15 -1 -25 -12t-9 -26q1 -14 11.5 -24t24.5 -10q1 0 2 1l69 3l-122 -127q-27 14 -57 14q-51 0 -87 -36t-36 -87t36 -87.5t87 -36.5t87.5 36.5t36.5 87.5q0 31 -16 59l174 181q79 -109 91 -251h-137q-20 0 -33.5 -13.5t-13.5 -32.5
t13.5 -32.5t33.5 -13.5h185q19 0 32.5 13.5t13.5 32.5q0 173 -85.5 313t-221.5 198zM347 641.5q0 63.5 45 108.5t108 45t108 -45t45 -108.5t-45 -108t-108 -44.5t-108 44.5t-45 108zM500.5 -50q-21.5 0 -37 15t-15.5 36.5t15.5 37t36.5 15.5q14 0 26 -8q3 -6 8 -11
q5 -4 10 -7q8 -12 8 -26q0 -22 -15 -37t-36.5 -15z" />
    <glyph glyph-name="jiaosequanxian" unicode="&#xe623;" horiz-adv-x="1038" 
d="M848 573h-195q-8 0 -14 -6t-6 -14.5t6 -14.5t14 -6h195q9 0 14.5 6t5.5 14.5t-5.5 14.5t-14.5 6zM848 445h-195q-8 0 -14 -6t-6 -14t6 -14t14 -6h195q9 0 14.5 6t5.5 14t-5.5 14t-14.5 6zM993 192l-33 7q-3 11 -8 22l17 29q16 26 0 43l-19 18q-9 9 -22 9q-12 0 -22 -7
l-28 -18q-10 5 -21 9l-8 33q-2 11 -11 20t-20 9h-27q-12 0 -20 -8.5t-10 -20.5l-9 -33q-11 -4 -23 -9l-29 18q-9 7 -21 7q-14 0 -22 -9l-19 -18q-16 -17 0 -43l18 -31q-5 -10 -8 -20l-32 -7q-12 -2 -21 -11t-9 -21v-26q0 -12 9 -20t21 -11l33 -8q3 -9 7 -18l-18 -31
q-16 -26 0 -42l19 -19q8 -9 22 -9q12 0 21 7l30 19q11 -6 23 -10l8 -32q3 -12 11 -21t19 -9v0h27q12 0 21 9t11 21l7 32q10 4 21 9l28 -18q10 -7 22 -7q13 0 22 9l19 19q16 16 0 42l-18 29q5 10 9 20l33 8q12 3 20.5 11t8.5 20v27q0 11 -9 20t-20 11zM994 135q-3 -3 -8 -4
l-47 -11q-1 -1 -2 -3l-4 -11q-3 -10 -8 -19l-5 -11q-1 -2 0 -3l25 -42q2 -4 3 -8l-18 -18h-2q-3 0 -5 2l-2.5 1.5t-6 3.5t-8 5l-9 6t-8 5t-6 3.5l-2.5 1.5q-1 1 -2 1t-1 -1l-11 -5q-10 -6 -21 -9l-12 -4q-1 0 -2 -2l-11 -48q0 -5 -3 -6h-26q-2 2 -3 8l-12 46q0 1 -2 2l-12 4
q-11 3 -22 9l-11 6h-2h-2l-42 -27q-2 -2 -5 -2h-1h-1v0l-18 18q0 4 3 8l26 43q1 2 0 3l-5 11q-5 9 -8 18l-3 11q-1 2 -3 3l-47 11q-5 1 -7 4v25q1 3 6 4h1l46 11q2 0 3 2l4 12q2 9 8 19l5 11q1 2 0 3l-26 43q-3 5 -3 8l18 18h2q3 0 5 -1l42 -27q1 -1 2 -1t2 1l11 5
q11 6 22 10l11 3q2 1 3 3l11 46q1 5 4 8h25q3 -2 4 -6v-0.5v-0.5l11 -47q0 -2 2 -3l12 -4q10 -3 21 -8l11 -6h1h2l41 26l0.5 0.5l0.5 0.5q2 1 5 1h0.5h0.5v0l19 -18q-1 -4 -3 -8l-25 -41q-1 -2 0 -4l5 -10q6 -11 9 -21l3 -12q1 -2 3 -2l47 -11h1q4 -1 6 -3v-26zM455 336
q38 23 61 62.5t23 85.5q0 71 -50.5 121.5t-122 50.5t-122 -50.5t-50.5 -121.5q0 -46 23 -85.5t61 -62.5q-74 -27 -120.5 -92.5t-46.5 -147.5q0 -8 5.5 -14t14 -6t14.5 6t6 14q0 89 63 152.5t152 63.5q52 0 97 -23t76 -64q5 -7 13.5 -8t15 4t7.5 13.5t-4 14.5q-46 61 -116 87
zM234 484.5q0 54.5 39 93t93.5 38.5t93 -38.5t38.5 -93t-38.5 -93.5t-93 -39t-93.5 39t-39 93.5zM804 238q-37 0 -63 -26.5t-26 -63.5t26 -63t63 -26t63.5 26t26.5 63t-26.5 63.5t-63.5 26.5zM804.5 87q-25.5 0 -43.5 18t-18 43t18 43t43.5 18t43.5 -18t18 -43t-18 -43
t-43.5 -18zM535 1v0h-26h-330q-46 0 -79 33t-33 80v544q0 47 33 80t79 33h597q46 0 79 -33t33 -80v-169v-14v-19q0 -13 9 -22t22 -9h5q12 0 21 9t9 22v19v14v192q0 63 -45 107.5t-108 44.5h-647q-63 0 -108 -44.5t-45 -107.5v-590q0 -63 45 -107.5t108 -44.5h355h26v0
q13 0 22 9t9 22v0q0 13 -9 22t-22 9z" />
    <glyph glyph-name="page-shuju" unicode="&#xe639;" 
d="M912 316h-3l-257 418q26 23 26 55q0 30 -21.5 51.5t-51.5 21.5t-51.5 -21.5t-21.5 -51.5q0 -9 2 -13l-290 -107q-20 29 -58 29q-30 0 -51.5 -21.5t-21.5 -51.5q0 -24 14.5 -43t36.5 -26l-65 -278q-25 -6 -41.5 -26t-16.5 -45q0 -31 21 -52t51 -21q34 0 57 25l271 -151v-2
q0 -30 21.5 -51.5t51.5 -21.5t51.5 21.5t21.5 51.5v11l285 168q21 -15 44 -15q30 0 51.5 21.5t21.5 51.5q-3 30 -25 51.5t-52 21.5zM603 825q15 0 25.5 -10.5t10.5 -25.5t-10.5 -25.5t-25.5 -10.5t-25.5 10.5t-10.5 25.5t10.5 25.5t25.5 10.5zM547 449l-137 78l166 195
l2.5 -1t4.5 -1zM578 396l240 -137l-259 -12zM543 416l-22 -171l-116 -6l-86 182l71 84zM545 745q1 -1 3.5 -4t3.5 -5l-167 -195l-130 75v9q0 9 -2 13zM244 585l121 -67l-61 -69l-61 134zM148 625q0 15 10.5 26t25.5 11t26 -11t11 -26t-11 -25.5t-26 -10.5t-25.5 10.5
t-10.5 25.5zM111.5 170q-15.5 0 -26 10.5t-10.5 26t10.5 26t26 10.5t26 -10.5t10.5 -26t-10.5 -26t-26 -10.5zM152 268q-3 2 -5.5 3.5t-6.5 3t-7 3.5l66 278l9 3t9 2l66 -140zM172 248l123 144l73 -156l-186 -9zM448 41l-266 147v2l203 11l69 -149q-3 -6 -6 -11zM419 203
l97 5l-17 -129q-7 -2 -18 -5zM512 -30q-15 0 -25.5 10.5t-10.5 25.5t10.5 26t25.5 11t25.5 -11t10.5 -26t-10.5 -25.5t-25.5 -10.5zM572 46q-15 22 -38 29l18 133l290 15q2 -7 5 -16zM849 278l-268 152l38 288q4 0 4 2l253 -413q-19 -10 -27 -29zM912.5 207
q-15.5 0 -26 10.5t-10.5 25.5t10.5 25.5t26 10.5t26 -10.5t10.5 -25.5t-10.5 -25.5t-26 -10.5z" />
    <glyph glyph-name="xitongxiaoxi" unicode="&#xe613;" horiz-adv-x="1107" 
d="M930 787h-888q-11 0 -18 -7t-7 -17v-560q0 -41 30 -70t72 -29h359q10 0 17 7t7 17.5t-7 17.5t-17 7h-359q-22 0 -37.5 14.5t-15.5 35.5v407l223 -124l-151 -193q-6 -8 -4.5 -18t9.5 -17q6 -5 15 -5q11 0 19 10l154 198l0.5 0.5t0.5 1.5l103 -57q6 -3 12 -3q14 0 21 12
q5 9 2.5 19t-11.5 14l-393 217v73h839v-98q0 -10 7.5 -17t17.5 -7t17 7t7 17v123q0 10 -7 17t-17 7zM1084 232l-68 41q2 12 2 25q0 12 -1 23l68 41q9 6 5 15l-28 70q-4 10 -15 7l-76 -20q-15 20 -35 36l20 76q2 11 -7 15l-70 29q-9 4 -15 -5l-40 -68q-24 3 -49 0l-41 68
q-5 9 -15 5l-69 -28q-10 -4 -7 -14l20 -77q-21 -16 -36 -36l-77 21q-10 3 -14 -7l-29 -69q-4 -10 5 -15l68 -40q-1 -12 -1 -27q0 -8 1 -23l-69 -40q-8 -6 -5 -16l29 -69q4 -10 14 -7l76 20q16 -19 35 -35l-19 -78q-3 -10 7 -14l69 -29q10 -4 15 5l41 68q23 -3 48 0l41 -68
q4 -6 11 -6q1 0 4 1l70 28q10 4 7 14l-20 77q19 15 35 34l77 -19q10 -3 15 7l28 69q5 10 -5 15zM850 246.5q-21 -21.5 -51.5 -21.5t-52 21.5t-21.5 52t22 51.5q21 22 51.5 22t51.5 -22q21 -21 21 -52q0 -30 -21 -51.5z" />
    <glyph glyph-name="page-anniu" unicode="&#xe638;" 
d="M804 313h-146v219q-1 4 -3.5 11.5t-11 26.5t-20 33.5t-31.5 26t-43.5 11t-43.5 -12t-31.5 -27.5t-20 -31.5t-11.5 -26.5l-3 -11v-365l-73 73q-3 3 -9 6.5t-24 10t-36.5 7t-44.5 -10.5t-50 -35q-28 -28 -41 -57t-13 -49t6 -40t10 -26t7 -10v0l173 -151q13 -11 21.5 -12
t13.5 4t15 20q3 4 5 6q9 16 4.5 29t-13.5 22l-10 8q-127 103 -139 116q-13 18 1.5 46.5t38.5 45.5t36 7l170 -170q9 -9 17.5 -9.5t11.5 3.5l4 4l-1 527h59v-226q0 -25 20.5 -49t46.5 -24h170q92 0 92 -109v-176q0 -20 19.5 -29.5t39.5 -1.5t20 31v183q0 44 -12.5 77.5
t-31.5 53t-44.5 31.5t-48 16t-45.5 4zM949 896h-874q-31 0 -52 -21.5t-21 -51.5v-360q0 -30 21 -51.5t52 -21.5h291v105h-260v296h813v-296h-188v-105h218q31 0 52 21.5t21 51.5v360q0 30 -21 51.5t-52 21.5z" />
    <glyph glyph-name="queding" unicode="&#xe624;" 
d="M354 548q-88 0 -162 -43t-117 -117.5t-43 -162t43 -161.5t117 -117.5t162 -43.5t162 43.5t117.5 117.5t43.5 161.5t-43.5 162t-117.5 117.5t-162 43zM579 299l-213 -233l-4 -4l-4 -5q-11 -12 -27.5 -13.5t-29.5 8.5l-167 128q-13 10 -14.5 25.5t8.5 27.5l21 24
q10 13 27 14.5t30 -8.5l112 -86l175 192q11 12 28 13t29 -9l25 -20q12 -10 13.5 -26t-9.5 -28z" />
    <glyph glyph-name="page-daohangcaidan" unicode="&#xe760;" horiz-adv-x="1040" 
d="M0 769h1024v-64h-1024v64zM0 385h1024v-64h-1024v64zM0 1h1024v-64h-1024v64z" />
    <glyph glyph-name="page-xialaanniu" unicode="&#xe647;" horiz-adv-x="1045" 
d="M887 481h-214l107 -214zM940 588h-856q-21 0 -37.5 -15t-16.5 -38v-322q0 -21 15 -37t39 -16h856q21 0 37.5 15t16.5 38v322q0 21 -15.5 37t-38.5 16zM565 213h-481v322h481v-322zM940 213h-321v322h321v-322z" />
    <glyph glyph-name="zhuti" unicode="&#xe635;" 
d="M788 736q-22 22 -33.5 27t-30.5 5h-82q-7 -7 -20 -17t-47.5 -27t-62.5 -17t-60 15.5t-50 30.5l-18 15h-85q-5 0 -9 -0.5t-8 -2.5t-6.5 -3.5t-7.5 -5.5t-6.5 -5.5t-7.5 -7t-8 -7.5l-164 -164q-7 -7 -12 -18.5t-3.5 -30.5t15.5 -36q142 -131 156 -133v-293
q0 -24 27.5 -42.5t54.5 -18.5h386q27 0 54.5 18.5t27.5 42.5v293q6 1 45 34t74 66l35 33q23 29 21.5 53.5t-21.5 43.5z" />
    <glyph glyph-name="xitongshitu" unicode="&#xe614;" 
d="M932.5 717q-21.5 22 -52.5 22q-45 0 -94.5 14t-84.5 31.5t-69.5 40.5t-46.5 32.5t-18 14.5q-21 19 -50 19t-50 -19q-38 -34 -97 -67q-115 -66 -216 -66q-31 0 -53 -22t-22 -53v-218q0 -150 94 -282t301 -276q19 -13 42.5 -13t42.5 13q208 144 301.5 276t93.5 282v218
q0 31 -21.5 53zM878 446q0 -41 -7 -77t-29 -85.5t-60.5 -98t-105.5 -109.5t-159 -125q-92 64 -159.5 125t-105.5 109.5t-60.5 98t-29 85.5t-6.5 77v216q66 1 137 24q58 19 116 53q62 36 108 75q45 -39 108 -75q58 -34 116 -53q71 -23 137 -24v-216zM705 343l-27 16
q2 13 2 25t-2 25l27 16q12 7 15.5 21t-3.5 26l-26 47q-10 17 -30 17q-10 0 -18 -4l-26 -16q-21 17 -44 26v17q0 15 -10 25t-24 10h-54q-14 0 -24 -10t-10 -25v-17q-23 -9 -44 -26l-26 16q-8 4 -18 4q-20 0 -30 -17l-26 -47q-7 -12 -3.5 -26t15.5 -21l27 -15q-2 -14 -2 -26
t2 -25l-27 -16q-12 -7 -15.5 -21t3.5 -26l26 -47q10 -17 30 -17q10 0 18 4l26 16q21 -17 44 -26v-17q0 -15 10 -25t24 -10h54q14 0 24 10t10 25v17q23 9 44 26l26 -16q8 -4 18 -4q20 0 30 17l26 47q7 12 3.5 26t-15.5 21zM487 259q-41 9 -69 41l-4 4l-43 -24q-1 -1 -3 -1
q-3 0 -5 3l-13 23q-3 5 2 8l43 25l-2 6q-7 20 -7 40t7 40l2 6l-43 25q-5 3 -2 8l13 23q2 3 5 3q2 0 3 -1l43 -24l4 4q28 32 69 41l6 1v36q0 6 6 6h26q6 0 6 -6v-36l6 -1q41 -9 69 -41l4 -4l43 24q1 1 3 1q3 0 5 -3l13 -23q3 -5 -2 -8l-43 -25l2 -6q7 -20 7 -40t-7 -40l-2 -6
l43 -25q5 -3 2 -8l-13 -23q-2 -3 -5 -3q-2 0 -3 1l-43 24l-4 -4q-28 -32 -69 -41l-6 -1v-36q0 -6 -6 -6h-26q-6 0 -6 6v36zM587 384q0 31 -22 53t-53 22t-53 -22t-22 -53t22 -53t53 -22t53 22t22 53zM512 417q13 0 22.5 -9.5t9.5 -23.5t-9.5 -23.5t-22.5 -9.5t-22.5 9.5
t-9.5 23.5t9.5 23.5t22.5 9.5z" />
    <glyph glyph-name="page-yulan" unicode="&#xe68e;" 
d="M888 543q-31 74 -87.5 130.5t-129.5 87.5q-76 32 -159 32t-159 -32q-73 -31 -129.5 -87.5t-87.5 -130.5q-32 -75 -32 -158.5t32 -158.5q31 -74 87.5 -130.5t129.5 -87.5q76 -32 159 -32t159 32q73 31 129.5 87.5t87.5 130.5q32 75 32 158.5t-32 158.5zM678 218
q-69 -69 -166 -69t-166 69t-69 166.5t69 166.5t166 69t166 -69t69 -166.5t-69 -166.5zM531 475q0 43 34 71q-26 8 -53 8q-70 0 -120 -49.5t-50 -120t50 -120t120 -49.5t119.5 49.5t49.5 119.5q0 10 -1 21q-25 -21 -57 -21q-38 0 -65 26.5t-27 64.5zM531 475q0 43 34 71
q-26 8 -53 8q-70 0 -120 -49.5t-50 -120t50 -120t120 -49.5t119.5 49.5t49.5 119.5q0 10 -1 21q-25 -21 -57 -21q-38 0 -65 26.5t-27 64.5zM531 475q0 43 34 71q-26 8 -53 8q-70 0 -120 -49.5t-50 -120t50 -120t120 -49.5t119.5 49.5t49.5 119.5q0 10 -1 21q-25 -21 -57 -21
q-38 0 -65 26.5t-27 64.5zM531 475q0 43 34 71q-26 8 -53 8q-70 0 -120 -49.5t-50 -120t50 -120t120 -49.5t119.5 49.5t49.5 119.5q0 10 -1 21q-25 -21 -57 -21q-38 0 -65 26.5t-27 64.5zM531 475q0 43 34 71q-26 8 -53 8q-70 0 -120 -49.5t-50 -120t50 -120t120 -49.5
t119.5 49.5t49.5 119.5q0 10 -1 21q-25 -21 -57 -21q-38 0 -65 26.5t-27 64.5z" />
    <glyph glyph-name="page-xuanxiangkuang" unicode="&#xe643;" 
d="M694 831h-364q-110 0 -187.5 -77.5t-77.5 -187.5v-364q0 -110 77.5 -187.5t187.5 -77.5h364q110 0 187.5 77.5t77.5 187.5v364q0 110 -77.5 187.5t-187.5 77.5zM886 202q0 -80 -56 -136t-136 -56h-364q-80 0 -136 56t-56 136v364q0 80 56 136t136 56h364q80 0 136 -56
t56 -136v-364zM565 473q-32 -35 -63.5 -77.5t-47.5 -67.5l-16 -25l-109 104l-45 -48l179 -203q67 132 143 246q27 40 60.5 81t53.5 63l20 22l-16 44l-23.5 -18t-63.5 -52.5t-72 -68.5z" />
    <glyph glyph-name="fanhuishouye" unicode="&#xe618;" 
d="M80 306h65v-334q0 -45 25.5 -67t59.5 -22h4h2h179v354q0 8 5 11h184q5 -3 6 -11v-66.5v-149.5v-109v-29h177q48 0 77 43q14 21 17 39l1 3l1 340h63q34 0 51 28q12 19 12 52v12l-8 8q-282 283 -465 467q-11 10 -30 10q-17 0 -28 -10l-463 -473v-12q0 -34 20 -59
q21 -25 45 -25v0zM947 366h-1h-121l-1 -390q-12 -35 -37 -35h-119v161v136q0 21 -13 40q-18 28 -50 28h-185q-26 0 -45 -20.5t-19 -47.5v-297h-122h-4q-26 0 -26 31v392h-119q-7 6 -10 16l432 441l443 -445q-1 -6 -3 -10v0z" />
    <glyph glyph-name="gengxin" unicode="&#xe625;" 
d="M722 582q-70 60 -146 89.5t-141.5 28.5t-129 -16.5t-113 -42t-87.5 -52.5t-58.5 -43.5t-20.5 -18.5q216 369 504 342q157 -16 302 -138q33 -28 33 -31l132 125v-440h-439l164 197v0zM302 186q218 -188 485 -79q118 47 208 131l3 3q-78 -133 -166 -214.5t-167 -106
t-156.5 -21.5t-139 30.5t-109.5 58.5t-74 54.5t-26 25.5l-134 -125v401h441l-165 -158v0z" />
    <glyph glyph-name="page-range" unicode="&#xe649;" horiz-adv-x="1026" 
d="M1 676h46v-92h-46v92zM47 722h46v-92h-46v92zM93 767h92v-412h-92v412zM322 722h92v-46h-92v46zM368 767h229v-45h-229v45zM551 722h92v-138h-92v138zM506 630h91v-92h-91v92zM460 584h46v-92h-46v92zM506 538h45v-46h-45v46zM414 538h92v-92h-92v92zM368 492h92v-91h-92
v91zM322 446h46v-91h-46v91zM368 401h275v-46h-275v46zM689 722h92v-46h-92v46zM735 767h229v-45h-229v45zM918 722h92v-92h-92v92zM827 630h137v-46h-137v46zM918 584h92v-138h-92v138zM918 446h46v-45h-46v45zM689 446h92v-45h-92v45zM735 401h183v-46h-183v46zM17 136
h1008v-92h-1008v92zM460 205h138v-229h-138v229z" />
    <glyph glyph-name="chaxunquanxian" unicode="&#xe615;" 
d="M672 830q-119 0 -203 -84t-84 -203q0 -83 46 -154l-346 -346q-18 -18 -18 -43t18 -43t43.5 -18t43.5 18l110 111l57 -57q8 -8 19 -8t19 7.5t8 18.5t-8 19l-57 57l90 90l57 -57q7 -8 18 -8t19 8t8 19t-8 18l-57 57l70 71q72 -46 155 -46q118 0 202 84t84 202.5t-84 202.5
t-202 84v0zM672 448q-40 0 -68 28t-28 67.5t28 67.5t67.5 28t67.5 -28t28 -67.5t-28 -67.5t-67 -28v0z" />
    <glyph glyph-name="page-sheji" unicode="&#xe63a;" horiz-adv-x="1148" 
d="M934 222q-93 -87 -196 -184q-338 359 -436 463q167 156 196 184q202 -216 436 -463zM579 507q-19 -5 -29 -23q-4 -9 8 -22q47 -50 104 -110q108 -115 133 -141q11 -12 18 -8q15 8 25 21q5 8 -8 22q-16 17 -63 66q-131 139 -174 185zM491 598q-19 -15 -20 -16
q-13 -13 -1 -26q7 -8 19 -20q10 -11 20 -4q2 2 7.5 5.5t8 5.5t4.5 7t1 10q0 4 -3 6q-16 18 -23 25q-1 1 -13 7zM328 396q58 -61 71 -74q36 -39 38 -41q9 -9 -1 -18q-16 -14 -33 4q-24 24 -50 52q-1 0 -8 10l-9.5 -9.5t-8.5 -7.5q41 -42 55 -57q22 -23 6 -39q-15 -14 -38 8
q-5 4 -58 53l1 1.5t1 2.5q-2 -2 -7.5 -7t-8.5 -9q4 -4 21 -21.5t26 -26.5q0 -1 5 -5.5t7 -7.5q18 -19 2 -34q-15 -16 -34 3q-11 11 -45 47q-1 1 -14 16l-8.5 -8.5l-8.5 -8.5q8 -9 26 -27.5t28 -28.5l8 -9q14 -17 0 -31t-31 0l-8.5 8.5l-8.5 8.5q-5 4 -48 44q-10 -7 -9.5 -22
t11.5 -27q13 -13 86 -90q37 -38 46 -46q28 -30 58 -2q11 12 155 150l3.5 3.5t4 3.5t3.5 3q3 -3 17.5 -18.5t22.5 -23.5q-33 -34 -35 -36q-55 -53 -176 -170q-26 -25 -52 1q-103 107 -220 229q-24 25 -1 47q48 46 214 207q1 0 5 3zM668 642q83 -86 84 -87q16 -16 19 -20
q9 -10 5.5 -22.5t-15.5 -15.5q-11 -2 -17 4q-38 39 -144 153l-2 3q87 84 89 86q18 18 52.5 51t50.5 48q25 25 50 0q76 -79 220 -228q25 -26 -1 -52q-55 -53 -191 -184l-5 -4q-8 9 -21 22.5t-15 16.5q55 61 59 65q16 17 47 46.5t39 38.5q28 26 1 54q-64 67 -132 138
q-12 11 -26 12.5t-26 -9.5q-13 -12 -121 -116zM409 780l-1 -1l-1 -1l-1 -1l-1 -1l-1 -1l-1 -1h-1l-1 -1l-1 -1l-1 -1l-1 -1l-1 -1l-1 -1l-1 -1l-1 -1l-1 -1l-1 -1l-1 -1l-1 -1l-1 -1l-1 -1l-1 -1l-1 -1l-1 -1l-1 -1l-1 -1h-1l-1 -1l-1 -1l-1 -1l-1 -1l-1 -1l-1 -1l-1 -1
l-1 -1l-1 -1l-1 -1l-1 -1l-1 -1l-1 -1l-1 -1l-1 -1l-1 -1l-1 -1h-1l-1 -1l-1 -1l-1 -1l-1 -1l-1 -1l-1 -1l-1 -1l-1 -1l-1 -1l-1 -1l-1 -1l-1 -1l-1 -1l-1 -1l-1 -1l-1 -1l-1 -1l-1 -1h-1l-1 -1l-1 -1l-1 -1l-1 -1l-1 -1l-1 -1l-1 -1l-1 -1l-1 -1l-1 -1l-1 -1l-1 -1l-1 -1
l-1 -1l-1 -1l-1 -1h-1l-1 -1l-1 -1l-1 -1l-1 -1l-1 -1l-1 -1l-1 -1l-1 -1l-1 -1l-1 -1l-1 -1l-1 -1l-1 -1l-1 -1l-1 -1l-1 -1l-1 -1h-1l-1 -1l-1 -1l-1 -1l-1 -1l-1 -1l-1 -1l-1 -1l-1 -1l-1 -1l-1 -1l-1 -1l-1 -1l-1 -1l-1 -1l-1 -1l-1 -1h-1l-1 -1l-1 -1l-1 -1l-1 -1
l-1 -1l-1 -1l-1 -1l-1 -1l-1 -1l-1 -1l-1 -1l-1 -1l-1 -1l-1 -1l-1 -1l-1 -1h-1l-1 -1l-1 -1l-1 -1l-1 -1l-1 -1l-1 -1l-1 -1l-1 -1l-1 -1l-1 -1l-1 -1l-1 -1l-1 -1l-1 -1l-1 -1l-1 -1h-1l-1 -1l-1 -1l-1 -1l-1 -1l-1 -1l-1 -1l-1 -1l-1 -1l-1 -1l-1 -1l-1 -1l-1 -1l-1 -1
l-1 -1l-1 -1h-1l-1 -1l-1 -1l-1 -1l-1 -1l-1 -1l-1 -1l-1 -1l-1 -1l-1 -1l-1 -1l-1 -1l-1 -1l-1 -1l-1 -1l-1 -1l-1 -1h-1l-1 -1l-1 -1l-1 -1l-1 -1l-1 -1l-1 -1l-1 -1l-1 -1l-1 -1l-1 -1l-1 -1l-1 -1l-1 -1q-69 75 -74 82q-13 16 -10.5 37.5t19.5 36.5q58 56 109 103
q17 16 38 17.5t37 -12.5q6 -6 77 -79zM298 820q-76 -72 -119 -112q15 -16 36 -38q9 9 17.5 16.5t17 16t16.5 15.5t17 16.5t17 16t17 16t17 15.5q-9 10 -36 38zM764 12q33 32 98 93t97 91q8 -26 9 -28q35 -111 63 -200q0 -1 0.5 -3t0.5 -3q7 -20 -6.5 -33t-34.5 -5
q-43 17 -62 24q-69 27 -158 61q-1 0 -7 3zM942 132q-7 -7 -114 -108q70 -26 88 -33q4 -1 9 3q6 6 19.5 18.5t20.5 19.5q7 6 4 15q-2 5 -13 41q-3 8 -8 24t-6 20zM282 522q-21 23 -50 54l1 1h1l1 1l1 1l1 1l1 1l1 1l1 1l1 1l1 1l1 1l1 1l1 1l1 1l1 1l1 1l1 1l1 1l1 1h1l1 1
l1 1l1 1l1 1l1 1l1 1l1 1l1 1l1 1l1 1l1 1l1 1l1 1l1 1l1 1l1 1l1 1h1l1 1l1 1l1 1l1 1l1 1l1 1l1 1l1 1l1 1l1 1l1 1l1 1l1 1l1 1l1 1l1 1l1 1h1l1 1l1 1l1 1l1 1l1 1l1 1l1 1l1 1l1 1l1 1l1 1l1 1l1 1l1 1l1 1l1 1h1l1 1l1 1l1 1l1 1l1 1l1 1l1 1l1 1l1 1l1 1l1 1l1 1l1 1
l1 1l1 1l1 1h1l1 1l1 1l1 1l1 1l1 1l1 1l1 1l1 1l1 1l1 1l1 1l1 1l1 1l1 1l1 1l1 1l1 1h1l1 1l1 1l1 1l1 1l1 1l1 1l1 1l1 1l1 1l1 1l1 1l1 1l1 1l1 1l1 1l1 1h1l1 1l1 1l1 1l1 2l1 1l1 1h1l1 1l1 1l1 1l1 1l1 1l1 1l1 1l1 1l1 1l1 1l1 1l1 1l1 1l1 1l1 1l1 1h1l1 1l1 1l1 1
l1 1l1 1l1 1l1 1l1 1l1 1l1 1l1 1l1 1l1 1l1 1l1 1l1 1h1l1 1l1 1l1 1l1 1l1 1l1 1l1 1l1 1l1 1l1 1l1 1l1 1l1 1l1 1l1 1l1 1h1l1 1l1 1l1 1l1 1l1 1l1 1l1 1l1 1l1 1l1 1l1 1l1 1q9 -10 26 -28t25 -26q-183 -173 -196 -184zM835 552q-30 0 -52 21t-22 53q-1 30 21 52
t53 23q30 1 52 -21t22.5 -52.5t-21 -52.5t-53.5 -23zM865 625.5q0 12.5 -8.5 21.5t-20.5 9q-13 1 -22 -8t-9 -22q0 -12 8.5 -20.5t21 -9t21.5 8t9 21z" />
    <glyph glyph-name="arrowdown" unicode="&#xe81e;" 
d="M512 38l-416 367h-65l481 -423l481 423h-65zM512 250l-416 367h-65l481 -424l481 424h-65z" />
    <glyph glyph-name="arrowup" unicode="&#xe821;" 
d="M512 645l416 -367h65l-481 424l-481 -424h65zM512 433l416 -367h65l-481 424l-481 -424h65z" />
    <glyph glyph-name="page-wenbenkuang" unicode="&#xe655;" 
d="M1024 64v576h-704v64h128v64h-320v-64h128v-64h-256v-576h256v-64h-128v-64h320v64h-128v64h704zM960 576v-448h-640v448h640zM64 128v448h192v-448h-192z" />
    <glyph glyph-name="page-cecaidanlan" unicode="&#xe64c;" horiz-adv-x="1026" 
d="M1006 680l-196 196q-20 20 -49 20t-49 -20l-194 -196q-20 -21 -20 -49.5t20 -48.5l195 -195q20 -20 49 -20t49 20l195 196q19 20 19 48.5t-19 48.5v0v0zM762 436l-195 195l195 195l194 -195zM355 831h-287q-29 0 -46.5 -16.5t-17.5 -44.5v-290q0 -28 17.5 -46t46.5 -18
h287q29 0 46.5 18t17.5 46v288q0 28 -17.5 45.5t-46.5 17.5v0v0zM355 288h-287q-28 0 -46 -21t-18 -50v-276q0 -29 20 -49t48 -20h276q30 0 50.5 18t20.5 46v288q0 28 -20.5 45.5t-50.5 17.5zM835 288h-224q-29 0 -47 -18t-18 -46v-288q0 -27 23.5 -45.5t53.5 -18.5h276
q29 0 46 18t17 46v288q0 28 -17.5 46t-46.5 18h-63z" />
    <glyph glyph-name="yonghujiaose" unicode="&#xe626;" 
d="M427 356q68 0 117.5 50t49.5 121t-49.5 121t-118 50t-118 -50t-49.5 -121q0 -69 50 -120t118 -51zM496 340h-124q-87 0 -147 -63t-60 -154v-14q0 -12 4 -21t12.5 -15.5t18 -11t26 -7.5t30 -5t36 -2.5t38.5 -1t42 -0.5h124q35 0 55.5 0.5t49 2.5t44.5 6t32.5 11t23.5 18
t7 26v14q0 90 -62.5 153.5t-149.5 63.5zM849 712h-165q-13 0 -22 -9.5t-9 -21.5q0 -13 9 -21.5t21 -8.5h167q12 0 21 8.5t9 21.5q0 12 -9 21.5t-22 9.5zM805 596h-121q-13 0 -22 -9t-9 -22q0 -12 9 -21t21 -9h123q12 0 21 9t9 21q0 13 -9 22t-22 9zM766 483h-82
q-13 0 -22 -9t-9 -22q0 -12 9 -21t21 -9h84q13 0 21.5 9t8.5 21q0 13 -9 22t-22 9z" />
    <glyph glyph-name="page-radio" unicode="&#xe652;" horiz-adv-x="1074" 
d="M536.5 -76q-90.5 0 -172.5 35t-141.5 94.5t-95 142t-35.5 172.5t35.5 172.5t95 142t141.5 95t172.5 35.5t172.5 -35.5t142 -95t95 -142t35 -172.5t-35 -172.5t-95 -142t-142 -94.5t-172.5 -35zM536.5 788q-113.5 0 -210.5 -56t-153 -153t-56 -211t56 -210.5t153 -153
t210.5 -56.5t210.5 56.5t153 153t56 210.5t-56 211t-153 153t-210.5 56zM243 368q0 -122 86 -208t207.5 -86t207.5 86t86 208t-86 208t-207.5 86t-207.5 -86t-86 -208z" />
    <glyph glyph-name="jiaoseyonghu" unicode="&#xe627;" 
d="M511 385q106 0 181 74.5t75 180.5t-75 181t-181 75t-180.5 -75t-74.5 -181t74.5 -180.5t180.5 -74.5v0zM511 257q-53 0 -118.5 -10t-135 -31.5t-126.5 -50.5t-94 -72t-37 -92v-128h1023v128q0 49 -37 92t-94 72t-126.5 50.5t-135 31.5t-119.5 10v0z" />
    <glyph glyph-name="page-daoru" unicode="&#xe641;" 
d="M92 61h840v-120h-840v120zM431 322l-138 -138h473v473l-138 -138l-149 149l-196 -197zM398 749l-78 78l-196 -197l78 -78z" />
    <glyph glyph-name="yonghuquanxian" unicode="&#xe619;" 
d="M866 51h-13v26q0 31 -21.5 52.5t-52 21.5t-52 -21.5t-21.5 -52.5v-26h-13q-7 0 -11 -4.5t-4 -10.5v-121q0 -6 4 -10.5t11 -4.5h173q6 0 10.5 4.5t4.5 10.5v121q0 6 -4.5 10.5t-10.5 4.5zM726 77q0 22 15.5 38t37.5 16t38 -16t16 -38v-26h-107v26zM633 -82v120q0 34 28 51
q1 6 3 16q-10 12 -12 24q-4 17 -4.5 32.5t0 40.5t0.5 33q0 4 10 24l21 45.5t23 49.5q11 24 18 30q25 22 31.5 55.5t-9.5 63.5q-6 14 -2 30q27 108 16 188q-14 97 -98 123q-7 2 -19.5 10t-17.5 10t-20.5 10.5t-26.5 12.5t-21 5q-76 11 -145 -11q-99 -33 -128 -133
q-9 -33 -9.5 -73t3 -67.5t11.5 -72.5q4 -18 -3 -33q-16 -31 -9 -64.5t34 -55.5q11 -9 15 -22q13 -56 46 -102q10 -14 11 -29q2 -46 -1 -80q-3 -29 -16 -40q-43 -36 -82 -55q-24 -12 -76.5 -34t-78.5 -35q-59 -29 -92 -77v-36h622q-22 19 -22 46zM926 -30v-52q0 -28 -23 -46
h87v37q-23 34 -64 61z" />
    <glyph glyph-name="page-waiguan" unicode="&#xe504;" 
d="M355 -23l-15 3q-33 9 -53.5 35.5t-20.5 60.5v333v6q-22 -9 -24 -10q-4 -2 -10.5 -4.5t-12 -5t-10.5 -4.5q-16 -7 -26 7q-55 76 -100 138q-13 19 8 28q132 58 218 96q14 6 34 13q1 0 12 2h54q13 -6 14 -21q0 -3 1 -9q6 -37 40 -61.5t78 -6.5q46 19 56 73q4 21 15 25h54
q29 -7 30 -8q18 -8 38.5 -17t45.5 -20t38 -17q3 -1 108 -47q4 -2 6 -2q19 -10 7 -27q-2 -3 -27 -38q-57 -78 -72 -99q-4 -6 -7 -8q-8 -6 -20 -1q-22 9 -52 22l-5 2v-6q0 -299 -1 -332q0 -36 -21 -63t-56 -35l-12 -2h-312v0zM118 542l1 -3q68 -93 82 -113q3 -4 7 -2
q3 2 26 11.5t35 15.5q13 5 20 -0.5t7 -17.5v-356q0 -30 20.5 -50.5t49.5 -20.5h290q9 0 15 2q25 5 40.5 24.5t15.5 44.5v316v46q0 12 10 14q8 1 14 -2q27 -11 63 -26q5 -3 8 2q15 20 80 111l3 4l-2 1q-192 84 -221 96q-6 3 -13 4.5t-13 1.5t-13 0.5t-14 0.5q-6 -45 -38 -75
q-33 -31 -76 -32q-39 -2 -70 20q-44 32 -53 86h-33.5t-9.5 -2q-32 -14 -153 -67z" />
    <glyph glyph-name="page-jiaohu" unicode="&#xe63b;" 
d="M625 -41q-42 0 -88 12t-76 24.5t-83 37.5l-20 10q-36 16 -71.5 33.5t-61 30t-45.5 23t-30.5 16l-10.5 5.5q-40 19 -55.5 61.5t3.5 83.5q13 28 40 45t58 17q24 0 46 -10l100 -49q-62 168 -103 240q-14 24 -30.5 43t-27 27t-27.5 20q-35 23 -47 41q-25 38 -11 80
q13 40 52 54q12 5 26 5q63 0 150 -87q28 -28 65 -85q7 23 25.5 41t42.5 26q16 6 32 6q43 0 71 -33q16 29 48 40q16 6 32 6q27 0 50 -15t34 -39q13 10 26 15q14 5 29 5q26 0 47 -14t29 -37q13 -34 33 -93t47 -164t22 -146q-4 -34 -9 -58.5t-18 -55t-32.5 -53t-53 -45.5
t-79.5 -39q-66 -25 -129 -25v0zM185 319q-20 0 -37 -11t-25 -29q-12 -26 -2.5 -53t35.5 -39q101 -53 218 -108l21 -10q52 -24 80 -36t70 -23t79 -11q57 0 116 22q40 14 69 33.5t46 38.5t28 45.5t15.5 48t8.5 52.5q5 45 -30 166.5t-70 218.5q-4 11 -15 18t-25 7q-8 0 -14 -2
q-14 -5 -25 -18l17 -48q3 -8 -0.5 -15.5t-11 -10.5t-15.5 0.5t-10 11.5l-30 81q-5 15 -19 25t-31 10q-9 0 -18 -4q-20 -7 -30 -27q-9 -19 -1 -41l11 -31q3 -8 -0.5 -15.5t-11.5 -10t-15.5 1t-9.5 10.5l-25 69q-6 16 -20 25.5t-31 9.5q-9 0 -18 -3q-23 -9 -37.5 -30t-4.5 -49
l19 -50q2 -8 -1 -15t-10 -10.5t-14.5 -0.5t-11.5 10v1q-67 122 -114 170q-42 41 -77.5 61t-56.5 12q-22 -8 -29 -29q-7 -23 7 -45q9 -13 36 -30q19 -13 30.5 -22t31.5 -31.5t36 -50.5q9 -17 20 -39t21 -45t20.5 -48t18.5 -46.5t16 -42.5t13.5 -35.5t9 -25t3.5 -11.5
q5 -13 -5 -21q-10 -9 -22 -3l-144 71q-13 7 -29 7z" />
    <glyph glyph-name="page-fuwenben" unicode="&#xe65a;" horiz-adv-x="1060" 
d="M978 752l3 -745h-2h-2q37 -20 38 -63q0 -30 -21.5 -51t-51.5 -21q-29 0 -46 18.5t-17 49.5h-744q0 -31 -16.5 -49.5t-45.5 -18.5q-30 0 -51.5 21t-21.5 51q0 44 34 63v0l2 745q-36 21 -36 62q0 30 21 51t51 21h1q43 0 62 -33h744q20 33 63 33q16 10 36 10q30 0 51 -21
t21 -51t-21 -51t-51 -21v0zM778 684h-541v-170h67v102h170v-406h-102v-67h271v67h-102v406h169v-102h68v170zM34 7v0v0z" />
    <glyph glyph-name="page-choutinav" unicode="&#xe654;" 
d="M88.5 828q-34.5 0 -59 -25t-24.5 -60.5t24.5 -60.5t59 -25t59 25t24.5 60.5t-24.5 60.5t-59 25zM293 799q-16 0 -28 -12.5t-12 -29.5v-29q0 -17 12 -29t28 -12h686q16 0 28 12t12 29v29q0 17 -12 29.5t-28 12.5h-686zM88.5 469q-34.5 0 -59 -25t-24.5 -60t24.5 -60
t59 -25t59 25t24.5 60t-24.5 60t-59 25zM253 369q0 -17 12 -29t28 -12h686q16 0 28 12t12 29v30q0 17 -12 29t-28 12h-686q-16 0 -28 -12t-12 -29v-30zM88.5 111q-34.5 0 -59 -25t-24.5 -60.5t24.5 -60.5t59 -25t59 25t24.5 60.5t-24.5 60.5t-59 25zM253 11q0 -17 12 -29.5
t28 -12.5h686q16 0 28 12.5t12 29.5v29q0 17 -12 29.5t-28 12.5h-686q-16 0 -28 -12.5t-12 -29.5v-29z" />
    <glyph glyph-name="page-xingwei" unicode="&#xe648;" 
d="M574 672q-64 24 -125 14q-84 -13 -121 -84q-50 -96 -16 -190q12 -31 20 -57q18 -62 -20 -118q-22 -32 -57 -63q-40 -36 -56 -87q-9 -33 0 -1q-4 -14 -6 -28q-7 -52 13 -94q28 -58 91 -75q87 -22 158 25q40 26 78 65q89 92 168 211q49 72 70 147q6 31 6 34q21 131 -72 222
q-51 48 -131 79zM731 343q-17 -68 -74 -153q-37 -55 -64 -89.5t-68 -77.5l-7 -7.5t-13 -14t-17 -17t-23 -18.5t-26.5 -17.5t-30.5 -15.5t-33 -10t-36.5 -3t-38.5 7q-39 12 -58.5 62t-3.5 88q16 35 34 58.5t38 42t29 29.5q16 22 27.5 56t9.5 68q-2 17 -11 47.5t-16.5 55
t-10 59t10.5 59.5q17 42 41 66.5t69 27.5q64 5 125.5 -23.5t95.5 -60.5q86 -84 51 -219zM290 686q30 -22 65 -16t55 37q19 28 19 67q-2 54 -39 88q-30 27 -66.5 23.5t-59.5 -35.5q-26 -38 -18.5 -87t44.5 -77zM292 817q13 20 34.5 23t39.5 -13q23 -19 25 -51q1 -23 -9 -40
q-11 -19 -32 -23.5t-39 8.5q-23 16 -28.5 45t9.5 51zM538 709q38 19 48 63q7 33 -4 58q-11 26 -35.5 35t-50.5 -4q-32 -17 -44 -56t5 -70q12 -23 35 -30.5t46 4.5zM506 827q14 7 28 2.5t20 -19.5q6 -14 2 -32q-6 -24 -27 -35q-13 -6 -25.5 -2.5t-19.5 16.5q-9 18 -2.5 39.5
t24.5 30.5zM670 675q33 15 45 52q7 28 0 50q-9 23 -29.5 32t-43.5 -1q-28 -13 -40.5 -46t0.5 -61q9 -20 28.5 -27.5t39.5 1.5zM650 775q12 5 23 0.5t15 -16.5t0 -26q-6 -19 -23 -27q-11 -5 -21 -1t-14 15q-7 14 -0.5 31t20.5 24zM712 630q7 -21 24.5 -31t38.5 -4q34 9 51 44
q11 26 7 48q-5 24 -24 35.5t-42 4.5q-30 -8 -46.5 -38t-8.5 -59zM769 694q12 3 21.5 -2.5t11.5 -17.5q2 -11 -4 -24q-8 -17 -25 -22q-10 -2 -18.5 2.5t-11.5 15.5q-5 14 3.5 28.5t22.5 19.5zM843 606q-28 -4 -46.5 -30t-13.5 -53q3 -20 18 -31t35 -8q33 5 52 35q13 22 12 43
q-2 23 -18 35.5t-39 8.5zM862 533q-8 -13 -23 -16q-9 -1 -16 4t-9 14q-2 13 6.5 24.5t21.5 13.5q10 2 17.5 -4t8.5 -16q0 -9 -6 -20z" />
    <glyph glyph-name="page-kaiguan" unicode="&#xe64a;" 
d="M44 381.5q0 -116.5 82.5 -199t198.5 -82.5h370q117 0 199 82.5t82 199t-82 199t-199 82.5h-370q-116 0 -198.5 -82.5t-82.5 -199zM70 382q0 106 74.5 181t180.5 75t181 -75t75 -181t-75 -180.5t-181 -74.5t-180.5 74.5t-74.5 180.5z" />
  </font>
</defs>
</svg>
